<svg width="144" height="124" viewBox="0 0 144 124" fill="none" xmlns="http://www.w3.org/2000/svg">
<path d="M28.3965 100.777L93.7412 74.136L49.0052 34.9291L28.3965 100.777Z" fill="#E7D4FA"/>
<g clip-path="url(#clip0_2718_8702)">
<path d="M48.731 104.456L9.27464 112.208L3.00322 86.8074C2.94019 86.5553 2.9402 86.3347 2.97171 86.0826C3.00323 85.8304 3.09777 85.6098 3.22382 85.3892C3.34988 85.1686 3.53897 85.0111 3.72806 84.8535C3.94866 84.7274 4.16927 84.6014 4.42138 84.5698L40.2535 77.5106C40.7262 77.416 41.199 77.5106 41.6086 77.7627C42.0183 78.0148 42.302 78.393 42.3965 78.8657L48.731 104.456Z" fill="#D5DDE0" stroke="black" stroke-width="0.3" stroke-linecap="round" stroke-linejoin="round"/>
<path d="M63.196 109.561L24.1809 117.629C23.5506 117.755 22.8888 117.692 22.3216 117.408L9.17995 110.727L9.33753 112.397L22.5106 119.047C23.0779 119.331 23.7082 119.425 24.307 119.299L63.3536 111.231C63.6688 111.137 63.8894 110.885 63.8578 110.443L63.7003 108.899L63.196 109.561Z" fill="#9BAEB5" stroke="black" stroke-width="0.3" stroke-linecap="round" stroke-linejoin="round"/>
<path d="M48.3843 102.628L9.21163 110.727L22.4163 117.408C22.952 117.66 23.5193 117.755 24.118 117.629L63.2277 109.561C63.3538 109.529 63.4798 109.466 63.5744 109.372C63.6689 109.277 63.7319 109.151 63.7319 108.994C63.7319 108.868 63.7004 108.71 63.6374 108.615C63.5744 108.521 63.4483 108.426 63.3222 108.363L48.3843 102.628Z" fill="#D5DDE0" stroke="black" stroke-width="0.3" stroke-linecap="round" stroke-linejoin="round"/>
<path d="M46.7454 110.664L46.2726 110.758L45.4848 110.916L45.0121 111.011L42.0497 111.609L41.577 111.704L40.8206 111.861L40.3479 111.956L37.3855 112.586L36.9128 112.681L36.188 112.838L35.7152 112.933L32.7529 113.563L32.2801 113.658L31.5553 113.815L31.0826 113.91L28.0887 114.54C27.9626 114.572 27.9626 114.635 28.0572 114.698L28.9396 115.107C29.0972 115.171 29.2547 115.202 29.4123 115.171L32.4062 114.54L32.8789 114.446L33.6038 114.288L34.0765 114.194L37.0704 113.563L37.5431 113.469L38.2679 113.311L38.7406 113.217L41.7345 112.586L42.2073 112.492L42.9636 112.334L43.4363 112.24L46.4302 111.609L46.9029 111.515L47.6908 111.357L48.1635 111.263L51.1574 110.632C51.2835 110.601 51.2835 110.538 51.1574 110.475L50.1174 110.065C49.9599 110.002 49.8023 110.002 49.6447 110.034L46.7454 110.664Z" fill="black" stroke="black" stroke-width="0.3" stroke-miterlimit="10"/>
<path d="M46.7454 110.664L46.2726 110.758L45.4848 110.916L45.0121 111.011L42.0497 111.609L41.577 111.704L40.8206 111.861L40.3479 111.956L37.3855 112.586L36.9128 112.681L36.188 112.838L35.7152 112.933L32.7529 113.563L32.2801 113.658L31.5553 113.815L31.0826 113.91L28.0887 114.54C27.9626 114.572 27.9626 114.635 28.0572 114.698L28.9396 115.107C29.0972 115.171 29.2547 115.202 29.4123 115.171L32.4062 114.54L32.8789 114.446L33.6038 114.288L34.0765 114.194L37.0704 113.563L37.5431 113.469L38.2679 113.311L38.7406 113.217L41.7345 112.586L42.2073 112.492L42.9636 112.334L43.4363 112.24L46.4302 111.609L46.9029 111.515L47.6908 111.357L48.1635 111.263L51.1574 110.632C51.2835 110.601 51.2835 110.538 51.1574 110.475L50.1174 110.065C49.9599 110.002 49.8023 110.002 49.6447 110.034L46.7454 110.664Z" fill="black" stroke="black" stroke-width="0.3" stroke-miterlimit="10"/>
<path d="M44.1294 109.561C44.0034 109.592 44.0034 109.655 44.1294 109.718L45.1064 110.128C45.2639 110.191 45.4215 110.191 45.5791 110.16L48.5099 109.561C48.636 109.529 48.636 109.466 48.5099 109.403L47.47 108.994C47.3124 108.931 47.1548 108.931 46.9972 108.962L44.1294 109.561Z" fill="black" stroke="black" stroke-width="0.3" stroke-miterlimit="10"/>
<path d="M44.1294 109.561C44.0034 109.592 44.0034 109.655 44.1294 109.718L45.1064 110.128C45.2639 110.191 45.4215 110.191 45.5791 110.16L48.5099 109.561C48.636 109.529 48.636 109.466 48.5099 109.403L47.47 108.994C47.3124 108.931 47.1548 108.931 46.9972 108.962L44.1294 109.561Z" fill="black" stroke="black" stroke-width="0.3" stroke-miterlimit="10"/>
<path d="M30.232 112.429C30.106 112.46 30.106 112.523 30.2005 112.586L31.1144 112.996C31.272 113.059 31.4296 113.059 31.5872 113.059L34.5495 112.46C34.6756 112.429 34.6756 112.366 34.581 112.303L33.6356 111.862C33.478 111.799 33.3205 111.799 33.1629 111.799L30.232 112.429Z" fill="black" stroke="black" stroke-width="0.3" stroke-miterlimit="10"/>
<path d="M30.232 112.429C30.106 112.46 30.106 112.523 30.2005 112.586L31.1144 112.996C31.272 113.059 31.4296 113.059 31.5872 113.059L34.5495 112.46C34.6756 112.429 34.6756 112.366 34.581 112.303L33.6356 111.862C33.478 111.799 33.3205 111.799 33.1629 111.799L30.232 112.429Z" fill="black" stroke="black" stroke-width="0.3" stroke-miterlimit="10"/>
<path d="M24.9685 111.137C25.0945 111.105 25.0945 111.042 25 110.979L24.0861 110.569C23.9285 110.506 23.7709 110.506 23.6133 110.506L20.777 111.105C20.651 111.137 20.6195 111.2 20.7455 111.263L21.6279 111.704C21.7855 111.767 21.9431 111.798 22.1006 111.767L24.9685 111.137Z" fill="black" stroke="black" stroke-width="0.3" stroke-miterlimit="10"/>
<path d="M24.9685 111.137C25.0945 111.105 25.0945 111.042 25 110.979L24.0861 110.569C23.9285 110.506 23.7709 110.506 23.6133 110.506L20.777 111.105C20.651 111.137 20.6195 111.2 20.7455 111.263L21.6279 111.704C21.7855 111.767 21.9431 111.798 22.1006 111.767L24.9685 111.137Z" fill="black" stroke="black" stroke-width="0.3" stroke-miterlimit="10"/>
<path d="M34.8326 111.483C34.7066 111.515 34.7066 111.578 34.8011 111.641L35.7465 112.051C35.9041 112.114 36.0617 112.114 36.2193 112.114L39.1501 111.515C39.2762 111.483 39.2762 111.42 39.1816 111.357L38.2047 110.948C38.0471 110.885 37.8895 110.885 37.732 110.885L34.8326 111.483Z" fill="black" stroke="black" stroke-width="0.3" stroke-miterlimit="10"/>
<path d="M34.8326 111.483C34.7066 111.515 34.7066 111.578 34.8011 111.641L35.7465 112.051C35.9041 112.114 36.0617 112.114 36.2193 112.114L39.1501 111.515C39.2762 111.483 39.2762 111.42 39.1816 111.357L38.2047 110.948C38.0471 110.885 37.8895 110.885 37.732 110.885L34.8326 111.483Z" fill="black" stroke="black" stroke-width="0.3" stroke-miterlimit="10"/>
<path d="M39.4656 110.506C39.3396 110.538 39.3396 110.601 39.4341 110.664L40.4111 111.074C40.5686 111.137 40.7262 111.137 40.8838 111.137L43.8146 110.538C43.9407 110.506 43.9407 110.443 43.8146 110.38L42.8062 109.971C42.6486 109.908 42.491 109.908 42.3334 109.939L39.4656 110.506Z" fill="black" stroke="black" stroke-width="0.3" stroke-miterlimit="10"/>
<path d="M39.4656 110.506C39.3396 110.538 39.3396 110.601 39.4341 110.664L40.4111 111.074C40.5686 111.137 40.7262 111.137 40.8838 111.137L43.8146 110.538C43.9407 110.506 43.9407 110.443 43.8146 110.38L42.8062 109.971C42.6486 109.908 42.491 109.908 42.3334 109.939L39.4656 110.506Z" fill="black" stroke="black" stroke-width="0.3" stroke-miterlimit="10"/>
<path d="M51.4411 109.687C51.3151 109.719 51.3151 109.782 51.4411 109.845L52.4811 110.254C52.6387 110.317 52.7963 110.317 52.9538 110.286L55.9162 109.687C56.0423 109.656 56.0423 109.593 55.9162 109.561L54.8447 109.151C54.6871 109.088 54.5296 109.088 54.372 109.12L51.4411 109.687Z" fill="black" stroke="black" stroke-width="0.3" stroke-miterlimit="10"/>
<path d="M51.4411 109.687C51.3151 109.719 51.3151 109.782 51.4411 109.845L52.4811 110.254C52.6387 110.317 52.7963 110.317 52.9538 110.286L55.9162 109.687C56.0423 109.656 56.0423 109.593 55.9162 109.561L54.8447 109.151C54.6871 109.088 54.5296 109.088 54.372 109.12L51.4411 109.687Z" fill="black" stroke="black" stroke-width="0.3" stroke-miterlimit="10"/>
<path d="M32.3114 110.349C32.1853 110.38 32.1853 110.443 32.2799 110.506L33.2253 110.916C33.3829 110.979 33.5405 110.979 33.698 110.979L36.5974 110.38C36.7234 110.349 36.7234 110.286 36.6289 110.223L35.6519 109.813C35.4944 109.75 35.3368 109.75 35.1792 109.75L32.3114 110.349Z" fill="black" stroke="black" stroke-width="0.3" stroke-miterlimit="10"/>
<path d="M32.3114 110.349C32.1853 110.38 32.1853 110.443 32.2799 110.506L33.2253 110.916C33.3829 110.979 33.5405 110.979 33.698 110.979L36.5974 110.38C36.7234 110.349 36.7234 110.286 36.6289 110.223L35.6519 109.813C35.4944 109.75 35.3368 109.75 35.1792 109.75L32.3114 110.349Z" fill="black" stroke="black" stroke-width="0.3" stroke-miterlimit="10"/>
<path d="M27.7423 111.294C27.6163 111.326 27.6163 111.389 27.7108 111.452L28.6247 111.862C28.7823 111.925 28.9399 111.925 29.0975 111.925L31.9968 111.326C32.1229 111.294 32.1229 111.231 32.0283 111.168L31.0829 110.759C30.9253 110.696 30.7677 110.696 30.6102 110.696L27.7423 111.294Z" fill="black" stroke="black" stroke-width="0.3" stroke-miterlimit="10"/>
<path d="M27.7423 111.294C27.6163 111.326 27.6163 111.389 27.7108 111.452L28.6247 111.862C28.7823 111.925 28.9399 111.925 29.0975 111.925L31.9968 111.326C32.1229 111.294 32.1229 111.231 32.0283 111.168L31.0829 110.759C30.9253 110.696 30.7677 110.696 30.6102 110.696L27.7423 111.294Z" fill="black" stroke="black" stroke-width="0.3" stroke-miterlimit="10"/>
<path d="M48.7622 108.584C48.6361 108.616 48.6361 108.679 48.7622 108.742L49.8022 109.151C49.9597 109.214 50.1173 109.214 50.2749 109.183L53.2057 108.584C53.3318 108.553 53.3318 108.49 53.2057 108.458L52.1343 108.048C51.9767 107.985 51.8191 107.985 51.6615 108.017L48.7622 108.584Z" fill="black" stroke="black" stroke-width="0.3" stroke-miterlimit="10"/>
<path d="M48.7622 108.584C48.6361 108.616 48.6361 108.679 48.7622 108.742L49.8022 109.151C49.9597 109.214 50.1173 109.214 50.2749 109.183L53.2057 108.584C53.3318 108.553 53.3318 108.49 53.2057 108.458L52.1343 108.048C51.9767 107.985 51.8191 107.985 51.6615 108.017L48.7622 108.584Z" fill="black" stroke="black" stroke-width="0.3" stroke-miterlimit="10"/>
<path d="M41.4822 108.458C41.3562 108.49 41.3562 108.553 41.4822 108.616L42.4907 109.025C42.6483 109.088 42.8058 109.088 42.9634 109.057L45.8312 108.458C45.9573 108.427 45.9573 108.364 45.8312 108.301L44.7913 107.891C44.6337 107.828 44.4761 107.828 44.3185 107.859L41.4822 108.458Z" fill="black" stroke="black" stroke-width="0.3" stroke-miterlimit="10"/>
<path d="M41.4822 108.458C41.3562 108.49 41.3562 108.553 41.4822 108.616L42.4907 109.025C42.6483 109.088 42.8058 109.088 42.9634 109.057L45.8312 108.458C45.9573 108.427 45.9573 108.364 45.8312 108.301L44.7913 107.891C44.6337 107.828 44.4761 107.828 44.3185 107.859L41.4822 108.458Z" fill="black" stroke="black" stroke-width="0.3" stroke-miterlimit="10"/>
<path d="M36.9127 109.403C36.7866 109.435 36.7866 109.498 36.9127 109.561L37.8896 109.971C38.0472 110.034 38.2048 110.034 38.3623 110.034L41.2302 109.435C41.3562 109.403 41.3562 109.34 41.2302 109.277L40.2217 108.868C40.0641 108.805 39.9065 108.805 39.749 108.836L36.9127 109.403Z" fill="black" stroke="black" stroke-width="0.3" stroke-miterlimit="10"/>
<path d="M36.9127 109.403C36.7866 109.435 36.7866 109.498 36.9127 109.561L37.8896 109.971C38.0472 110.034 38.2048 110.034 38.3623 110.034L41.2302 109.435C41.3562 109.403 41.3562 109.34 41.2302 109.277L40.2217 108.868C40.0641 108.805 39.9065 108.805 39.749 108.836L36.9127 109.403Z" fill="black" stroke="black" stroke-width="0.3" stroke-miterlimit="10"/>
<path d="M43.1213 107.355C43.2473 107.324 43.2473 107.261 43.1213 107.198L42.0813 106.788C41.9237 106.725 41.7661 106.725 41.6086 106.756L38.8353 107.324C38.7092 107.355 38.7092 107.418 38.8353 107.481L39.8438 107.891C40.0013 107.954 40.1589 107.954 40.3165 107.922L43.1213 107.355Z" fill="black" stroke="black" stroke-width="0.3" stroke-miterlimit="10"/>
<path d="M43.1213 107.355C43.2473 107.324 43.2473 107.261 43.1213 107.198L42.0813 106.788C41.9237 106.725 41.7661 106.725 41.6086 106.756L38.8353 107.324C38.7092 107.355 38.7092 107.418 38.8353 107.481L39.8438 107.891C40.0013 107.954 40.1589 107.954 40.3165 107.922L43.1213 107.355Z" fill="black" stroke="black" stroke-width="0.3" stroke-miterlimit="10"/>
<path d="M47.6911 106.441C47.8172 106.409 47.8172 106.346 47.6911 106.315L46.6196 105.905C46.462 105.842 46.3045 105.842 46.1469 105.874L43.3736 106.441C43.2475 106.473 43.2475 106.536 43.3736 106.599L44.4136 107.008C44.5712 107.071 44.7287 107.071 44.8863 107.04L47.6911 106.441Z" fill="black" stroke="black" stroke-width="0.3" stroke-miterlimit="10"/>
<path d="M47.6911 106.441C47.8172 106.409 47.8172 106.346 47.6911 106.315L46.6196 105.905C46.462 105.842 46.3045 105.842 46.1469 105.874L43.3736 106.441C43.2475 106.473 43.2475 106.536 43.3736 106.599L44.4136 107.008C44.5712 107.071 44.7287 107.071 44.8863 107.04L47.6911 106.441Z" fill="black" stroke="black" stroke-width="0.3" stroke-miterlimit="10"/>
<path d="M38.5832 108.3C38.7092 108.269 38.7092 108.206 38.5832 108.143L37.5747 107.733C37.4172 107.67 37.2596 107.67 37.102 107.702L34.2972 108.269C34.1711 108.3 34.1711 108.363 34.2972 108.426L35.2742 108.836C35.4317 108.899 35.5893 108.899 35.7469 108.899L38.5832 108.3Z" fill="black" stroke="black" stroke-width="0.3" stroke-miterlimit="10"/>
<path d="M38.5832 108.3C38.7092 108.269 38.7092 108.206 38.5832 108.143L37.5747 107.733C37.4172 107.67 37.2596 107.67 37.102 107.702L34.2972 108.269C34.1711 108.3 34.1711 108.363 34.2972 108.426L35.2742 108.836C35.4317 108.899 35.5893 108.899 35.7469 108.899L38.5832 108.3Z" fill="black" stroke="black" stroke-width="0.3" stroke-miterlimit="10"/>
<path d="M29.4753 110.191C29.6014 110.16 29.6014 110.097 29.5068 110.034L28.5614 109.624C28.4038 109.561 28.2462 109.561 28.0887 109.561L25.2524 110.16C25.1263 110.191 25.1263 110.254 25.2208 110.317L26.1348 110.727C26.2923 110.79 26.4499 110.79 26.6075 110.79L29.4753 110.191Z" fill="black" stroke="black" stroke-width="0.3" stroke-miterlimit="10"/>
<path d="M29.4753 110.191C29.6014 110.16 29.6014 110.097 29.5068 110.034L28.5614 109.624C28.4038 109.561 28.2462 109.561 28.0887 109.561L25.2524 110.16C25.1263 110.191 25.1263 110.254 25.2208 110.317L26.1348 110.727C26.2923 110.79 26.4499 110.79 26.6075 110.79L29.4753 110.191Z" fill="black" stroke="black" stroke-width="0.3" stroke-miterlimit="10"/>
<path d="M34.0451 109.246C34.1712 109.214 34.1712 109.151 34.0451 109.088L33.0682 108.679C32.9106 108.615 32.753 108.615 32.5954 108.615L29.7906 109.183C29.6646 109.214 29.6646 109.277 29.7591 109.34L30.7046 109.75C30.8621 109.813 31.0197 109.813 31.1773 109.813L34.0451 109.246Z" fill="black" stroke="black" stroke-width="0.3" stroke-miterlimit="10"/>
<path d="M34.0451 109.246C34.1712 109.214 34.1712 109.151 34.0451 109.088L33.0682 108.679C32.9106 108.615 32.753 108.615 32.5954 108.615L29.7906 109.183C29.6646 109.214 29.6646 109.277 29.7591 109.34L30.7046 109.75C30.8621 109.813 31.0197 109.813 31.1773 109.813L34.0451 109.246Z" fill="black" stroke="black" stroke-width="0.3" stroke-miterlimit="10"/>
<path d="M22.0065 112.618C21.8489 112.555 21.6913 112.523 21.5338 112.555L18.6344 113.154C18.5084 113.185 18.4768 113.248 18.6029 113.311L19.4853 113.721C19.6429 113.784 19.8005 113.815 19.958 113.784L22.8889 113.185C23.0149 113.154 23.0149 113.091 22.9204 113.028L22.0065 112.618Z" fill="black" stroke="black" stroke-width="0.3" stroke-miterlimit="10"/>
<path d="M22.0065 112.618C21.8489 112.555 21.6913 112.523 21.5338 112.555L18.6344 113.154C18.5084 113.185 18.4768 113.248 18.6029 113.311L19.4853 113.721C19.6429 113.784 19.8005 113.815 19.958 113.784L22.8889 113.185C23.0149 113.154 23.0149 113.091 22.9204 113.028L22.0065 112.618Z" fill="black" stroke="black" stroke-width="0.3" stroke-miterlimit="10"/>
<path d="M25.599 113.374C25.4729 113.406 25.4414 113.469 25.5675 113.532L26.4499 113.973C26.6075 114.036 26.765 114.067 26.9226 114.036L29.885 113.437C30.011 113.406 30.011 113.343 29.9165 113.28L29.0026 112.87C28.845 112.807 28.6874 112.807 28.5299 112.807L25.599 113.374Z" fill="black" stroke="black" stroke-width="0.3" stroke-miterlimit="10"/>
<path d="M25.599 113.374C25.4729 113.406 25.4414 113.469 25.5675 113.532L26.4499 113.973C26.6075 114.036 26.765 114.067 26.9226 114.036L29.885 113.437C30.011 113.406 30.011 113.343 29.9165 113.28L29.0026 112.87C28.845 112.807 28.6874 112.807 28.5299 112.807L25.599 113.374Z" fill="black" stroke="black" stroke-width="0.3" stroke-miterlimit="10"/>
<path d="M20.9979 114.351C20.8719 114.383 20.8403 114.446 20.9664 114.509L21.8488 114.95C22.0064 115.013 22.164 115.044 22.3215 115.013L25.2839 114.414C25.41 114.383 25.41 114.32 25.3154 114.257L24.433 113.815C24.2754 113.752 24.1179 113.721 23.9603 113.752L20.9979 114.351Z" fill="black" stroke="black" stroke-width="0.3" stroke-miterlimit="10"/>
<path d="M20.9979 114.351C20.8719 114.383 20.8403 114.446 20.9664 114.509L21.8488 114.95C22.0064 115.013 22.164 115.044 22.3215 115.013L25.2839 114.414C25.41 114.383 25.41 114.32 25.3154 114.257L24.433 113.815C24.2754 113.752 24.1179 113.721 23.9603 113.752L20.9979 114.351Z" fill="black" stroke="black" stroke-width="0.3" stroke-miterlimit="10"/>
<path d="M20.4621 112.051C20.5882 112.019 20.5882 111.956 20.4936 111.893L19.6112 111.483C19.4537 111.42 19.2961 111.389 19.1385 111.42L16.3022 112.019C16.1761 112.051 16.1761 112.114 16.2707 112.177L17.1531 112.618C17.3107 112.681 17.4682 112.712 17.6258 112.681L20.4621 112.051Z" fill="black" stroke="black" stroke-width="0.3" stroke-miterlimit="10"/>
<path d="M20.4621 112.051C20.5882 112.019 20.5882 111.956 20.4936 111.893L19.6112 111.483C19.4537 111.42 19.2961 111.389 19.1385 111.42L16.3022 112.019C16.1761 112.051 16.1761 112.114 16.2707 112.177L17.1531 112.618C17.3107 112.681 17.4682 112.712 17.6258 112.681L20.4621 112.051Z" fill="black" stroke="black" stroke-width="0.3" stroke-miterlimit="10"/>
<path d="M47.0922 108.048C47.2498 108.111 47.4074 108.111 47.565 108.08L50.4328 107.481C50.5589 107.45 50.5589 107.386 50.4328 107.355L49.3613 106.945C49.2037 106.882 49.0462 106.882 48.8886 106.914L46.0523 107.513C45.9262 107.544 45.9262 107.607 46.0523 107.67L47.0922 108.048Z" fill="black" stroke="black" stroke-width="0.3" stroke-miterlimit="10"/>
<path d="M47.0922 108.048C47.2498 108.111 47.4074 108.111 47.565 108.08L50.4328 107.481C50.5589 107.45 50.5589 107.386 50.4328 107.355L49.3613 106.945C49.2037 106.882 49.0462 106.882 48.8886 106.914L46.0523 107.513C45.9262 107.544 45.9262 107.607 46.0523 107.67L47.0922 108.048Z" fill="black" stroke="black" stroke-width="0.3" stroke-miterlimit="10"/>
<path d="M35.9362 107.197C36.0623 107.166 36.0623 107.103 35.9362 107.04L34.9278 106.63C34.7702 106.567 34.6126 106.567 34.455 106.599L31.7133 107.166C31.5872 107.197 31.5872 107.26 31.6817 107.323L32.7217 107.733C32.8793 107.796 33.0369 107.796 33.1944 107.796L35.9362 107.197Z" fill="black" stroke="black" stroke-width="0.3" stroke-miterlimit="10"/>
<path d="M35.9362 107.197C36.0623 107.166 36.0623 107.103 35.9362 107.04L34.9278 106.63C34.7702 106.567 34.6126 106.567 34.455 106.599L31.7133 107.166C31.5872 107.197 31.5872 107.26 31.6817 107.323L32.7217 107.733C32.8793 107.796 33.0369 107.796 33.1944 107.796L35.9362 107.197Z" fill="black" stroke="black" stroke-width="0.3" stroke-miterlimit="10"/>
<path d="M44.9494 105.338C45.0755 105.306 45.0755 105.243 44.9494 105.212L43.8779 104.802C43.7203 104.739 43.5628 104.739 43.4052 104.771L40.6949 105.338C40.5689 105.369 40.5689 105.433 40.6949 105.496L41.7349 105.905C41.8925 105.968 42.0501 105.968 42.2076 105.937L44.9494 105.338Z" fill="black" stroke="black" stroke-width="0.3" stroke-miterlimit="10"/>
<path d="M44.9494 105.338C45.0755 105.306 45.0755 105.243 44.9494 105.212L43.8779 104.802C43.7203 104.739 43.5628 104.739 43.4052 104.771L40.6949 105.338C40.5689 105.369 40.5689 105.433 40.6949 105.496L41.7349 105.905C41.8925 105.968 42.0501 105.968 42.2076 105.937L44.9494 105.338Z" fill="black" stroke="black" stroke-width="0.3" stroke-miterlimit="10"/>
<path d="M40.4426 106.252C40.5686 106.22 40.5686 106.157 40.4426 106.094L39.4026 105.685C39.245 105.622 39.0874 105.622 38.9299 105.653L36.1881 106.22C36.062 106.252 36.062 106.315 36.1881 106.378L37.1966 106.788C37.3541 106.851 37.5117 106.851 37.6693 106.819L40.4426 106.252Z" fill="black" stroke="black" stroke-width="0.3" stroke-miterlimit="10"/>
<path d="M40.4426 106.252C40.5686 106.22 40.5686 106.157 40.4426 106.094L39.4026 105.685C39.245 105.622 39.0874 105.622 38.9299 105.653L36.1881 106.22C36.062 106.252 36.062 106.315 36.1881 106.378L37.1966 106.788C37.3541 106.851 37.5117 106.851 37.6693 106.819L40.4426 106.252Z" fill="black" stroke="black" stroke-width="0.3" stroke-miterlimit="10"/>
<path d="M26.9856 109.057C27.1116 109.025 27.1116 108.962 27.0171 108.899L26.0716 108.49C25.9141 108.427 25.7565 108.427 25.5989 108.427L22.8256 108.994C22.6996 109.025 22.6996 109.088 22.7941 109.151L23.708 109.561C23.8656 109.624 24.0232 109.624 24.1808 109.624L26.9856 109.057Z" fill="black" stroke="black" stroke-width="0.3" stroke-miterlimit="10"/>
<path d="M26.9856 109.057C27.1116 109.025 27.1116 108.962 27.0171 108.899L26.0716 108.49C25.9141 108.427 25.7565 108.427 25.5989 108.427L22.8256 108.994C22.6996 109.025 22.6996 109.088 22.7941 109.151L23.708 109.561C23.8656 109.624 24.0232 109.624 24.1808 109.624L26.9856 109.057Z" fill="black" stroke="black" stroke-width="0.3" stroke-miterlimit="10"/>
<path d="M31.4606 108.143C31.5867 108.111 31.5867 108.048 31.4606 107.985L30.4837 107.575C30.3261 107.512 30.1685 107.512 30.011 107.512L27.2692 108.08C27.1431 108.111 27.1431 108.174 27.2377 108.237L28.1831 108.647C28.3407 108.71 28.4983 108.71 28.6558 108.71L31.4606 108.143Z" fill="black" stroke="black" stroke-width="0.3" stroke-miterlimit="10"/>
<path d="M31.4606 108.143C31.5867 108.111 31.5867 108.048 31.4606 107.985L30.4837 107.575C30.3261 107.512 30.1685 107.512 30.011 107.512L27.2692 108.08C27.1431 108.111 27.1431 108.174 27.2377 108.237L28.1831 108.647C28.3407 108.71 28.4983 108.71 28.6558 108.71L31.4606 108.143Z" fill="black" stroke="black" stroke-width="0.3" stroke-miterlimit="10"/>
<path d="M54.4665 108.206C54.6241 108.269 54.7816 108.269 54.9392 108.237L57.8386 107.639C57.9646 107.607 57.9646 107.544 57.8386 107.512L56.7355 107.103C56.578 107.04 56.4204 107.04 56.2628 107.071L53.395 107.67C53.2689 107.702 53.2689 107.765 53.395 107.796L54.4665 108.206Z" fill="black" stroke="black" stroke-width="0.3" stroke-miterlimit="10"/>
<path d="M54.4665 108.206C54.6241 108.269 54.7816 108.269 54.9392 108.237L57.8386 107.639C57.9646 107.607 57.9646 107.544 57.8386 107.512L56.7355 107.103C56.578 107.04 56.4204 107.04 56.2628 107.071L53.395 107.67C53.2689 107.702 53.2689 107.765 53.395 107.796L54.4665 108.206Z" fill="black" stroke="black" stroke-width="0.3" stroke-miterlimit="10"/>
<path d="M22.5105 109.971C22.6365 109.939 22.6365 109.876 22.542 109.813L21.6281 109.372C21.4705 109.309 21.3129 109.309 21.1553 109.309L18.3821 109.876C18.256 109.908 18.256 109.971 18.3505 110.034L19.2329 110.475C19.3905 110.538 19.5481 110.569 19.7057 110.538L22.5105 109.971Z" fill="black" stroke="black" stroke-width="0.3" stroke-miterlimit="10"/>
<path d="M22.5105 109.971C22.6365 109.939 22.6365 109.876 22.542 109.813L21.6281 109.372C21.4705 109.309 21.3129 109.309 21.1553 109.309L18.3821 109.876C18.256 109.908 18.256 109.971 18.3505 110.034L19.2329 110.475C19.3905 110.538 19.5481 110.569 19.7057 110.538L22.5105 109.971Z" fill="black" stroke="black" stroke-width="0.3" stroke-miterlimit="10"/>
<path d="M27.427 112.271C27.553 112.24 27.553 112.177 27.4585 112.114L26.5446 111.704C26.387 111.641 26.2294 111.61 26.0718 111.641L23.204 112.24C23.078 112.271 23.078 112.334 23.1725 112.397L24.0549 112.839C24.2125 112.902 24.3701 112.933 24.5276 112.902L27.427 112.271Z" fill="black" stroke="black" stroke-width="0.3" stroke-miterlimit="10"/>
<path d="M27.427 112.271C27.553 112.24 27.553 112.177 27.4585 112.114L26.5446 111.704C26.387 111.641 26.2294 111.61 26.0718 111.641L23.204 112.24C23.078 112.271 23.078 112.334 23.1725 112.397L24.0549 112.839C24.2125 112.902 24.3701 112.933 24.5276 112.902L27.427 112.271Z" fill="black" stroke="black" stroke-width="0.3" stroke-miterlimit="10"/>
<path d="M49.4557 104.393C49.5818 104.361 49.5818 104.298 49.4557 104.267L48.3527 103.857C48.1952 103.794 48.0376 103.794 47.88 103.825L45.1698 104.393C45.0437 104.424 45.0437 104.487 45.1698 104.519L46.2728 104.928C46.4303 104.991 46.5879 104.991 46.7455 104.96L49.4557 104.393Z" fill="black" stroke="black" stroke-width="0.3" stroke-miterlimit="10"/>
<path d="M49.4557 104.393C49.5818 104.361 49.5818 104.298 49.4557 104.267L48.3527 103.857C48.1952 103.794 48.0376 103.794 47.88 103.825L45.1698 104.393C45.0437 104.424 45.0437 104.487 45.1698 104.519L46.2728 104.928C46.4303 104.991 46.5879 104.991 46.7455 104.96L49.4557 104.393Z" fill="black" stroke="black" stroke-width="0.3" stroke-miterlimit="10"/>
<path d="M51.7243 107.103C51.8819 107.166 52.0395 107.166 52.1971 107.134L55.0334 106.535C55.1594 106.504 55.1594 106.441 55.0334 106.409L53.9304 106C53.7728 105.937 53.6152 105.937 53.4577 105.968L50.6529 106.535C50.5268 106.567 50.5268 106.63 50.6529 106.662L51.7243 107.103Z" fill="black" stroke="black" stroke-width="0.3" stroke-miterlimit="10"/>
<path d="M51.7243 107.103C51.8819 107.166 52.0395 107.166 52.1971 107.134L55.0334 106.535C55.1594 106.504 55.1594 106.441 55.0334 106.409L53.9304 106C53.7728 105.937 53.6152 105.937 53.4577 105.968L50.6529 106.535C50.5268 106.567 50.5268 106.63 50.6529 106.662L51.7243 107.103Z" fill="black" stroke="black" stroke-width="0.3" stroke-miterlimit="10"/>
<path d="M48.9829 106.031C49.1405 106.094 49.2981 106.094 49.4556 106.063L52.2604 105.496C52.3865 105.464 52.3865 105.401 52.2604 105.37L51.1574 104.96C50.9999 104.897 50.8423 104.897 50.6847 104.928L47.9429 105.496C47.8169 105.527 47.8169 105.59 47.9429 105.622L48.9829 106.031Z" fill="black" stroke="black" stroke-width="0.3" stroke-miterlimit="10"/>
<path d="M48.9829 106.031C49.1405 106.094 49.2981 106.094 49.4556 106.063L52.2604 105.496C52.3865 105.464 52.3865 105.401 52.2604 105.37L51.1574 104.96C50.9999 104.897 50.8423 104.897 50.6847 104.928L47.9429 105.496C47.8169 105.527 47.8169 105.59 47.9429 105.622L48.9829 106.031Z" fill="black" stroke="black" stroke-width="0.3" stroke-miterlimit="10"/>
<path d="M23.3929 115.517C23.2668 115.549 23.2353 115.612 23.3614 115.675L24.2438 116.116C24.4014 116.179 24.5589 116.21 24.7165 116.179L27.7419 115.549C27.868 115.517 27.868 115.454 27.7734 115.391L26.891 114.95C26.7334 114.887 26.5759 114.855 26.4183 114.887L23.3929 115.517Z" fill="black" stroke="black" stroke-width="0.3" stroke-miterlimit="10"/>
<path d="M23.3929 115.517C23.2668 115.549 23.2353 115.612 23.3614 115.675L24.2438 116.116C24.4014 116.179 24.5589 116.21 24.7165 116.179L27.7419 115.549C27.868 115.517 27.868 115.454 27.7734 115.391L26.891 114.95C26.7334 114.887 26.5759 114.855 26.4183 114.887L23.3929 115.517Z" fill="black" stroke="black" stroke-width="0.3" stroke-miterlimit="10"/>
<path d="M18.0359 110.916C18.1619 110.885 18.1619 110.822 18.0674 110.759L17.185 110.317C17.0274 110.254 16.8698 110.223 16.7122 110.254L13.9074 110.822C13.7814 110.853 13.7814 110.916 13.8759 110.979L14.7583 111.42C14.9159 111.483 15.0735 111.515 15.2311 111.483L18.0359 110.916Z" fill="black" stroke="black" stroke-width="0.3" stroke-miterlimit="10"/>
<path d="M18.0359 110.916C18.1619 110.885 18.1619 110.822 18.0674 110.759L17.185 110.317C17.0274 110.254 16.8698 110.223 16.7122 110.254L13.9074 110.822C13.7814 110.853 13.7814 110.916 13.8759 110.979L14.7583 111.42C14.9159 111.483 15.0735 111.515 15.2311 111.483L18.0359 110.916Z" fill="black" stroke="black" stroke-width="0.3" stroke-miterlimit="10"/>
<path d="M46.7141 110.506L46.2414 110.601L45.4535 110.759L44.9808 110.853L42.0184 111.452L41.5457 111.546L40.7894 111.704L40.3166 111.799L37.3543 112.397L36.8815 112.492L36.1567 112.649L35.684 112.744L32.7216 113.343L32.2489 113.437L31.5241 113.595L31.0513 113.689L28.0574 114.32C27.9314 114.351 27.9314 114.414 28.0259 114.477L28.9083 114.919C29.0659 114.982 29.2235 115.013 29.3811 114.982L32.375 114.351L32.8477 114.257L33.5725 114.099L34.0452 114.005L37.0391 113.374L37.5118 113.28L38.2367 113.122L38.7094 113.028L41.7033 112.397L42.176 112.303L42.9324 112.145L43.4051 112.051L46.399 111.42L46.8717 111.326L47.6595 111.168L48.1323 111.074L51.1262 110.443C51.2522 110.412 51.2522 110.349 51.1262 110.317L50.0862 109.908C49.9286 109.845 49.771 109.845 49.6135 109.876L46.7141 110.506Z" fill="white" stroke="black" stroke-width="0.3" stroke-miterlimit="10"/>
<path d="M46.7141 110.506L46.2414 110.601L45.4535 110.759L44.9808 110.853L42.0184 111.452L41.5457 111.546L40.7894 111.704L40.3166 111.799L37.3543 112.397L36.8815 112.492L36.1567 112.649L35.684 112.744L32.7216 113.343L32.2489 113.437L31.5241 113.595L31.0513 113.689L28.0574 114.32C27.9314 114.351 27.9314 114.414 28.0259 114.477L28.9083 114.919C29.0659 114.982 29.2235 115.013 29.3811 114.982L32.375 114.351L32.8477 114.257L33.5725 114.099L34.0452 114.005L37.0391 113.374L37.5118 113.28L38.2367 113.122L38.7094 113.028L41.7033 112.397L42.176 112.303L42.9324 112.145L43.4051 112.051L46.399 111.42L46.8717 111.326L47.6595 111.168L48.1323 111.074L51.1262 110.443C51.2522 110.412 51.2522 110.349 51.1262 110.317L50.0862 109.908C49.9286 109.845 49.771 109.845 49.6135 109.876L46.7141 110.506Z" fill="white" stroke="black" stroke-width="0.3" stroke-miterlimit="10"/>
<path d="M44.0982 109.403C43.9721 109.435 43.9721 109.498 44.0982 109.561L45.0751 109.971C45.2327 110.034 45.3903 110.034 45.5478 110.002L48.4787 109.403C48.6048 109.372 48.6048 109.309 48.4787 109.277L47.4387 108.868C47.2811 108.805 47.1236 108.805 46.966 108.836L44.0982 109.403Z" fill="white" stroke="black" stroke-width="0.3" stroke-miterlimit="10"/>
<path d="M44.0982 109.403C43.9721 109.435 43.9721 109.498 44.0982 109.561L45.0751 109.971C45.2327 110.034 45.3903 110.034 45.5478 110.002L48.4787 109.403C48.6048 109.372 48.6048 109.309 48.4787 109.277L47.4387 108.868C47.2811 108.805 47.1236 108.805 46.966 108.836L44.0982 109.403Z" fill="white" stroke="black" stroke-width="0.3" stroke-miterlimit="10"/>
<path d="M30.2003 112.271C30.0742 112.303 30.0742 112.366 30.1688 112.429L31.0827 112.838C31.2403 112.901 31.3978 112.901 31.5554 112.901L34.5178 112.303C34.6438 112.271 34.6439 112.208 34.5493 112.145L33.6039 111.735C33.4463 111.672 33.2887 111.672 33.1311 111.672L30.2003 112.271Z" fill="white" stroke="black" stroke-width="0.3" stroke-miterlimit="10"/>
<path d="M30.2003 112.271C30.0742 112.303 30.0742 112.366 30.1688 112.429L31.0827 112.838C31.2403 112.901 31.3978 112.901 31.5554 112.901L34.5178 112.303C34.6438 112.271 34.6439 112.208 34.5493 112.145L33.6039 111.735C33.4463 111.672 33.2887 111.672 33.1311 111.672L30.2003 112.271Z" fill="white" stroke="black" stroke-width="0.3" stroke-miterlimit="10"/>
<path d="M24.9372 110.948C25.0633 110.916 25.0633 110.853 24.9687 110.79L24.0548 110.38C23.8972 110.317 23.7397 110.317 23.5821 110.317L20.7458 110.916C20.6197 110.948 20.5882 111.011 20.7143 111.074L21.5967 111.515C21.7542 111.578 21.9118 111.609 22.0694 111.578L24.9372 110.948Z" fill="white" stroke="black" stroke-width="0.3" stroke-miterlimit="10"/>
<path d="M24.9372 110.948C25.0633 110.916 25.0633 110.853 24.9687 110.79L24.0548 110.38C23.8972 110.317 23.7397 110.317 23.5821 110.317L20.7458 110.916C20.6197 110.948 20.5882 111.011 20.7143 111.074L21.5967 111.515C21.7542 111.578 21.9118 111.609 22.0694 111.578L24.9372 110.948Z" fill="white" stroke="black" stroke-width="0.3" stroke-miterlimit="10"/>
<path d="M34.8326 111.294C34.7066 111.326 34.7066 111.389 34.8011 111.452L35.7465 111.862C35.9041 111.925 36.0617 111.925 36.2193 111.925L39.1501 111.326C39.2762 111.294 39.2762 111.231 39.1816 111.168L38.2047 110.759C38.0471 110.696 37.8895 110.696 37.732 110.696L34.8326 111.294Z" fill="white" stroke="black" stroke-width="0.3" stroke-miterlimit="10"/>
<path d="M34.8326 111.294C34.7066 111.326 34.7066 111.389 34.8011 111.452L35.7465 111.862C35.9041 111.925 36.0617 111.925 36.2193 111.925L39.1501 111.326C39.2762 111.294 39.2762 111.231 39.1816 111.168L38.2047 110.759C38.0471 110.696 37.8895 110.696 37.732 110.696L34.8326 111.294Z" fill="white" stroke="black" stroke-width="0.3" stroke-miterlimit="10"/>
<path d="M39.4656 110.349C39.3396 110.38 39.3396 110.443 39.4341 110.507L40.4111 110.916C40.5686 110.979 40.7262 110.979 40.8838 110.979L43.8146 110.38C43.9407 110.349 43.9407 110.286 43.8146 110.223L42.8062 109.813C42.6486 109.75 42.491 109.75 42.3334 109.782L39.4656 110.349Z" fill="white" stroke="black" stroke-width="0.3" stroke-miterlimit="10"/>
<path d="M39.4656 110.349C39.3396 110.38 39.3396 110.443 39.4341 110.507L40.4111 110.916C40.5686 110.979 40.7262 110.979 40.8838 110.979L43.8146 110.38C43.9407 110.349 43.9407 110.286 43.8146 110.223L42.8062 109.813C42.6486 109.75 42.491 109.75 42.3334 109.782L39.4656 110.349Z" fill="white" stroke="black" stroke-width="0.3" stroke-miterlimit="10"/>
<path d="M51.4411 109.529C51.3151 109.561 51.3151 109.624 51.4411 109.687L52.4811 110.097C52.6387 110.16 52.7963 110.16 52.9538 110.128L55.9162 109.498C56.0423 109.466 56.0423 109.403 55.9162 109.372L54.8447 108.962C54.6871 108.899 54.5296 108.899 54.372 108.931L51.4411 109.529Z" fill="white" stroke="black" stroke-width="0.3" stroke-miterlimit="10"/>
<path d="M51.4411 109.529C51.3151 109.561 51.3151 109.624 51.4411 109.687L52.4811 110.097C52.6387 110.16 52.7963 110.16 52.9538 110.128L55.9162 109.498C56.0423 109.466 56.0423 109.403 55.9162 109.372L54.8447 108.962C54.6871 108.899 54.5296 108.899 54.372 108.931L51.4411 109.529Z" fill="white" stroke="black" stroke-width="0.3" stroke-miterlimit="10"/>
<path d="M32.3114 110.16C32.1853 110.191 32.1853 110.254 32.2799 110.317L33.2253 110.759C33.3829 110.822 33.5405 110.822 33.698 110.822L36.5974 110.223C36.7234 110.191 36.7234 110.128 36.6289 110.065L35.6519 109.656C35.4944 109.593 35.3368 109.593 35.1792 109.593L32.3114 110.16Z" fill="white" stroke="black" stroke-width="0.3" stroke-miterlimit="10"/>
<path d="M32.3114 110.16C32.1853 110.191 32.1853 110.254 32.2799 110.317L33.2253 110.759C33.3829 110.822 33.5405 110.822 33.698 110.822L36.5974 110.223C36.7234 110.191 36.7234 110.128 36.6289 110.065L35.6519 109.656C35.4944 109.593 35.3368 109.593 35.1792 109.593L32.3114 110.16Z" fill="white" stroke="black" stroke-width="0.3" stroke-miterlimit="10"/>
<path d="M27.7423 111.137C27.6163 111.168 27.6163 111.231 27.7108 111.294L28.6247 111.704C28.7823 111.767 28.9399 111.767 29.0975 111.767L31.9968 111.168C32.1229 111.137 32.1229 111.074 32.0283 111.011L31.0829 110.601C30.9253 110.538 30.7677 110.538 30.6102 110.538L27.7423 111.137Z" fill="white" stroke="black" stroke-width="0.3" stroke-miterlimit="10"/>
<path d="M27.7423 111.137C27.6163 111.168 27.6163 111.231 27.7108 111.294L28.6247 111.704C28.7823 111.767 28.9399 111.767 29.0975 111.767L31.9968 111.168C32.1229 111.137 32.1229 111.074 32.0283 111.011L31.0829 110.601C30.9253 110.538 30.7677 110.538 30.6102 110.538L27.7423 111.137Z" fill="white" stroke="black" stroke-width="0.3" stroke-miterlimit="10"/>
<path d="M48.7622 108.427C48.6361 108.458 48.6361 108.521 48.7622 108.584L49.8022 108.994C49.9597 109.057 50.1173 109.057 50.2749 109.025L53.2057 108.427C53.3318 108.395 53.3318 108.332 53.2057 108.301L52.1343 107.891C51.9767 107.828 51.8191 107.828 51.6615 107.859L48.7622 108.427Z" fill="white" stroke="black" stroke-width="0.3" stroke-miterlimit="10"/>
<path d="M48.7622 108.427C48.6361 108.458 48.6361 108.521 48.7622 108.584L49.8022 108.994C49.9597 109.057 50.1173 109.057 50.2749 109.025L53.2057 108.427C53.3318 108.395 53.3318 108.332 53.2057 108.301L52.1343 107.891C51.9767 107.828 51.8191 107.828 51.6615 107.859L48.7622 108.427Z" fill="white" stroke="black" stroke-width="0.3" stroke-miterlimit="10"/>
<path d="M41.4822 108.269C41.3562 108.3 41.3562 108.363 41.4822 108.426L42.4907 108.836C42.6483 108.899 42.8058 108.899 42.9634 108.868L45.8312 108.269C45.9573 108.237 45.9573 108.174 45.8312 108.111L44.7913 107.702C44.6337 107.639 44.4761 107.639 44.3185 107.67L41.4822 108.269Z" fill="white" stroke="black" stroke-width="0.3" stroke-miterlimit="10"/>
<path d="M41.4822 108.269C41.3562 108.3 41.3562 108.363 41.4822 108.426L42.4907 108.836C42.6483 108.899 42.8058 108.899 42.9634 108.868L45.8312 108.269C45.9573 108.237 45.9573 108.174 45.8312 108.111L44.7913 107.702C44.6337 107.639 44.4761 107.639 44.3185 107.67L41.4822 108.269Z" fill="white" stroke="black" stroke-width="0.3" stroke-miterlimit="10"/>
<path d="M36.8814 109.214C36.7553 109.246 36.7553 109.309 36.8814 109.372L37.8584 109.782C38.0159 109.845 38.1735 109.845 38.3311 109.845L41.1989 109.246C41.325 109.214 41.325 109.151 41.1989 109.088L40.1904 108.679C40.0329 108.616 39.8753 108.616 39.7177 108.647L36.8814 109.214Z" fill="white" stroke="black" stroke-width="0.3" stroke-miterlimit="10"/>
<path d="M36.8814 109.214C36.7553 109.246 36.7553 109.309 36.8814 109.372L37.8584 109.782C38.0159 109.845 38.1735 109.845 38.3311 109.845L41.1989 109.246C41.325 109.214 41.325 109.151 41.1989 109.088L40.1904 108.679C40.0329 108.616 39.8753 108.616 39.7177 108.647L36.8814 109.214Z" fill="white" stroke="black" stroke-width="0.3" stroke-miterlimit="10"/>
<path d="M43.1213 107.197C43.2473 107.166 43.2473 107.103 43.1213 107.04L42.0813 106.63C41.9237 106.567 41.7661 106.567 41.6086 106.599L38.8353 107.166C38.7092 107.197 38.7092 107.26 38.8353 107.323L39.8438 107.733C40.0013 107.796 40.1589 107.796 40.3165 107.765L43.1213 107.197Z" fill="white" stroke="black" stroke-width="0.3" stroke-miterlimit="10"/>
<path d="M43.1213 107.197C43.2473 107.166 43.2473 107.103 43.1213 107.04L42.0813 106.63C41.9237 106.567 41.7661 106.567 41.6086 106.599L38.8353 107.166C38.7092 107.197 38.7092 107.26 38.8353 107.323L39.8438 107.733C40.0013 107.796 40.1589 107.796 40.3165 107.765L43.1213 107.197Z" fill="white" stroke="black" stroke-width="0.3" stroke-miterlimit="10"/>
<path d="M47.6594 106.252C47.7854 106.221 47.7854 106.157 47.6594 106.126L46.5879 105.716C46.4303 105.653 46.2727 105.653 46.1151 105.685L43.3419 106.252C43.2158 106.284 43.2158 106.347 43.3419 106.41L44.3818 106.788C44.5394 106.851 44.697 106.851 44.8546 106.819L47.6594 106.252Z" fill="white" stroke="black" stroke-width="0.3" stroke-miterlimit="10"/>
<path d="M47.6594 106.252C47.7854 106.221 47.7854 106.157 47.6594 106.126L46.5879 105.716C46.4303 105.653 46.2727 105.653 46.1151 105.685L43.3419 106.252C43.2158 106.284 43.2158 106.347 43.3419 106.41L44.3818 106.788C44.5394 106.851 44.697 106.851 44.8546 106.819L47.6594 106.252Z" fill="white" stroke="black" stroke-width="0.3" stroke-miterlimit="10"/>
<path d="M38.5515 108.143C38.6775 108.111 38.6775 108.048 38.5515 107.985L37.543 107.576C37.3854 107.513 37.2278 107.513 37.0703 107.544L34.2655 108.111C34.1394 108.143 34.1394 108.206 34.2655 108.269L35.2424 108.679C35.4 108.742 35.5576 108.742 35.7151 108.742L38.5515 108.143Z" fill="white" stroke="black" stroke-width="0.3" stroke-miterlimit="10"/>
<path d="M38.5515 108.143C38.6775 108.111 38.6775 108.048 38.5515 107.985L37.543 107.576C37.3854 107.513 37.2278 107.513 37.0703 107.544L34.2655 108.111C34.1394 108.143 34.1394 108.206 34.2655 108.269L35.2424 108.679C35.4 108.742 35.5576 108.742 35.7151 108.742L38.5515 108.143Z" fill="white" stroke="black" stroke-width="0.3" stroke-miterlimit="10"/>
<path d="M29.4753 110.002C29.6014 109.971 29.6014 109.908 29.5068 109.845L28.5614 109.435C28.4038 109.372 28.2462 109.372 28.0887 109.372L25.2524 109.939C25.1263 109.971 25.1263 110.034 25.2208 110.097L26.1348 110.506C26.2923 110.569 26.4499 110.569 26.6075 110.569L29.4753 110.002Z" fill="white" stroke="black" stroke-width="0.3" stroke-miterlimit="10"/>
<path d="M29.4753 110.002C29.6014 109.971 29.6014 109.908 29.5068 109.845L28.5614 109.435C28.4038 109.372 28.2462 109.372 28.0887 109.372L25.2524 109.939C25.1263 109.971 25.1263 110.034 25.2208 110.097L26.1348 110.506C26.2923 110.569 26.4499 110.569 26.6075 110.569L29.4753 110.002Z" fill="white" stroke="black" stroke-width="0.3" stroke-miterlimit="10"/>
<path d="M34.0134 109.088C34.1394 109.057 34.1394 108.994 34.0134 108.931L33.0364 108.521C32.8788 108.458 32.7213 108.458 32.5637 108.458L29.7589 109.025C29.6328 109.057 29.6328 109.12 29.7274 109.183L30.6728 109.624C30.8304 109.687 30.988 109.687 31.1455 109.687L34.0134 109.088Z" fill="white" stroke="black" stroke-width="0.3" stroke-miterlimit="10"/>
<path d="M34.0134 109.088C34.1394 109.057 34.1394 108.994 34.0134 108.931L33.0364 108.521C32.8788 108.458 32.7213 108.458 32.5637 108.458L29.7589 109.025C29.6328 109.057 29.6328 109.12 29.7274 109.183L30.6728 109.624C30.8304 109.687 30.988 109.687 31.1455 109.687L34.0134 109.088Z" fill="white" stroke="black" stroke-width="0.3" stroke-miterlimit="10"/>
<path d="M21.9752 112.46C21.8177 112.397 21.6601 112.366 21.5025 112.397L18.6032 112.996C18.4771 113.028 18.4456 113.091 18.5716 113.154L19.4541 113.595C19.6116 113.658 19.7692 113.689 19.9268 113.658L22.8576 113.059C22.9837 113.028 22.9837 112.965 22.8892 112.902L21.9752 112.46Z" fill="white" stroke="black" stroke-width="0.3" stroke-miterlimit="10"/>
<path d="M21.9752 112.46C21.8177 112.397 21.6601 112.366 21.5025 112.397L18.6032 112.996C18.4771 113.028 18.4456 113.091 18.5716 113.154L19.4541 113.595C19.6116 113.658 19.7692 113.689 19.9268 113.658L22.8576 113.059C22.9837 113.028 22.9837 112.965 22.8892 112.902L21.9752 112.46Z" fill="white" stroke="black" stroke-width="0.3" stroke-miterlimit="10"/>
<path d="M25.599 113.217C25.4729 113.248 25.4414 113.311 25.5675 113.374L26.4499 113.815C26.6075 113.878 26.765 113.91 26.9226 113.878L29.885 113.28C30.011 113.248 30.011 113.185 29.9165 113.122L29.0026 112.712C28.845 112.649 28.6874 112.649 28.5299 112.649L25.599 113.217Z" fill="white" stroke="black" stroke-width="0.3" stroke-miterlimit="10"/>
<path d="M25.599 113.217C25.4729 113.248 25.4414 113.311 25.5675 113.374L26.4499 113.815C26.6075 113.878 26.765 113.91 26.9226 113.878L29.885 113.28C30.011 113.248 30.011 113.185 29.9165 113.122L29.0026 112.712C28.845 112.649 28.6874 112.649 28.5299 112.649L25.599 113.217Z" fill="white" stroke="black" stroke-width="0.3" stroke-miterlimit="10"/>
<path d="M20.9979 114.162C20.8719 114.194 20.8403 114.257 20.9664 114.32L21.8488 114.761C22.0064 114.824 22.164 114.855 22.3215 114.824L25.2839 114.225C25.41 114.194 25.41 114.131 25.3154 114.068L24.433 113.626C24.2754 113.563 24.1179 113.532 23.9603 113.563L20.9979 114.162Z" fill="white" stroke="black" stroke-width="0.3" stroke-miterlimit="10"/>
<path d="M20.9979 114.162C20.8719 114.194 20.8403 114.257 20.9664 114.32L21.8488 114.761C22.0064 114.824 22.164 114.855 22.3215 114.824L25.2839 114.225C25.41 114.194 25.41 114.131 25.3154 114.068L24.433 113.626C24.2754 113.563 24.1179 113.532 23.9603 113.563L20.9979 114.162Z" fill="white" stroke="black" stroke-width="0.3" stroke-miterlimit="10"/>
<path d="M20.4304 111.893C20.5564 111.862 20.5564 111.799 20.4619 111.736L19.5795 111.294C19.4219 111.231 19.2643 111.2 19.1068 111.231L16.2705 111.83C16.1444 111.862 16.1444 111.925 16.2389 111.988L17.1214 112.397C17.2789 112.46 17.4365 112.492 17.5941 112.46L20.4304 111.893Z" fill="white" stroke="black" stroke-width="0.3" stroke-miterlimit="10"/>
<path d="M20.4304 111.893C20.5564 111.862 20.5564 111.799 20.4619 111.736L19.5795 111.294C19.4219 111.231 19.2643 111.2 19.1068 111.231L16.2705 111.83C16.1444 111.862 16.1444 111.925 16.2389 111.988L17.1214 112.397C17.2789 112.46 17.4365 112.492 17.5941 112.46L20.4304 111.893Z" fill="white" stroke="black" stroke-width="0.3" stroke-miterlimit="10"/>
<path d="M47.0922 107.891C47.2498 107.954 47.4074 107.954 47.565 107.922L50.4328 107.324C50.5589 107.292 50.5589 107.229 50.4328 107.198L49.3613 106.788C49.2037 106.725 49.0462 106.725 48.8886 106.756L46.0523 107.355C45.9262 107.387 45.9262 107.45 46.0523 107.513L47.0922 107.891Z" fill="white" stroke="black" stroke-width="0.3" stroke-miterlimit="10"/>
<path d="M47.0922 107.891C47.2498 107.954 47.4074 107.954 47.565 107.922L50.4328 107.324C50.5589 107.292 50.5589 107.229 50.4328 107.198L49.3613 106.788C49.2037 106.725 49.0462 106.725 48.8886 106.756L46.0523 107.355C45.9262 107.387 45.9262 107.45 46.0523 107.513L47.0922 107.891Z" fill="white" stroke="black" stroke-width="0.3" stroke-miterlimit="10"/>
<path d="M35.9362 107.04C36.0623 107.008 36.0623 106.945 35.9362 106.882L34.9278 106.473C34.7702 106.41 34.6126 106.41 34.455 106.441L31.7133 107.008C31.5872 107.04 31.5872 107.103 31.6817 107.166L32.6587 107.576C32.8163 107.639 32.9738 107.639 33.1314 107.639L35.9362 107.04Z" fill="white" stroke="black" stroke-width="0.3" stroke-miterlimit="10"/>
<path d="M35.9362 107.04C36.0623 107.008 36.0623 106.945 35.9362 106.882L34.9278 106.473C34.7702 106.41 34.6126 106.41 34.455 106.441L31.7133 107.008C31.5872 107.04 31.5872 107.103 31.6817 107.166L32.6587 107.576C32.8163 107.639 32.9738 107.639 33.1314 107.639L35.9362 107.04Z" fill="white" stroke="black" stroke-width="0.3" stroke-miterlimit="10"/>
<path d="M44.9177 105.18C45.0437 105.149 45.0437 105.086 44.9177 105.054L43.8462 104.645C43.6886 104.582 43.531 104.582 43.3734 104.613L40.6632 105.18C40.5371 105.212 40.5371 105.275 40.6632 105.338L41.7032 105.748C41.8607 105.811 42.0183 105.811 42.1759 105.779L44.9177 105.18Z" fill="white" stroke="black" stroke-width="0.3" stroke-miterlimit="10"/>
<path d="M44.9177 105.18C45.0437 105.149 45.0437 105.086 44.9177 105.054L43.8462 104.645C43.6886 104.582 43.531 104.582 43.3734 104.613L40.6632 105.18C40.5371 105.212 40.5371 105.275 40.6632 105.338L41.7032 105.748C41.8607 105.811 42.0183 105.811 42.1759 105.779L44.9177 105.18Z" fill="white" stroke="black" stroke-width="0.3" stroke-miterlimit="10"/>
<path d="M40.4108 106.094C40.5369 106.063 40.5369 106 40.4108 105.937L39.3708 105.527C39.2133 105.464 39.0557 105.464 38.8981 105.496L36.1564 106.063C36.0303 106.094 36.0303 106.157 36.1564 106.22L37.1648 106.63C37.3224 106.693 37.48 106.693 37.6375 106.662L40.4108 106.094Z" fill="white" stroke="black" stroke-width="0.3" stroke-miterlimit="10"/>
<path d="M40.4108 106.094C40.5369 106.063 40.5369 106 40.4108 105.937L39.3708 105.527C39.2133 105.464 39.0557 105.464 38.8981 105.496L36.1564 106.063C36.0303 106.094 36.0303 106.157 36.1564 106.22L37.1648 106.63C37.3224 106.693 37.48 106.693 37.6375 106.662L40.4108 106.094Z" fill="white" stroke="black" stroke-width="0.3" stroke-miterlimit="10"/>
<path d="M26.9543 108.899C27.0804 108.868 27.0804 108.805 26.9858 108.742L26.0404 108.332C25.8828 108.269 25.7252 108.269 25.5677 108.269L22.7944 108.836C22.6683 108.868 22.6683 108.931 22.7629 108.994L23.6768 109.403C23.8344 109.466 23.9919 109.466 24.1495 109.466L26.9543 108.899Z" fill="white" stroke="black" stroke-width="0.3" stroke-miterlimit="10"/>
<path d="M26.9543 108.899C27.0804 108.868 27.0804 108.805 26.9858 108.742L26.0404 108.332C25.8828 108.269 25.7252 108.269 25.5677 108.269L22.7944 108.836C22.6683 108.868 22.6683 108.931 22.7629 108.994L23.6768 109.403C23.8344 109.466 23.9919 109.466 24.1495 109.466L26.9543 108.899Z" fill="white" stroke="black" stroke-width="0.3" stroke-miterlimit="10"/>
<path d="M31.4294 107.954C31.5554 107.922 31.5554 107.859 31.4294 107.796L30.4524 107.387C30.2949 107.323 30.1373 107.323 29.9797 107.323L27.2379 107.891C27.1119 107.922 27.1119 107.985 27.2064 108.048L28.1519 108.49C28.3094 108.553 28.467 108.553 28.6246 108.553L31.4294 107.954Z" fill="white" stroke="black" stroke-width="0.3" stroke-miterlimit="10"/>
<path d="M31.4294 107.954C31.5554 107.922 31.5554 107.859 31.4294 107.796L30.4524 107.387C30.2949 107.323 30.1373 107.323 29.9797 107.323L27.2379 107.891C27.1119 107.922 27.1119 107.985 27.2064 108.048L28.1519 108.49C28.3094 108.553 28.467 108.553 28.6246 108.553L31.4294 107.954Z" fill="white" stroke="black" stroke-width="0.3" stroke-miterlimit="10"/>
<path d="M54.4665 108.017C54.6241 108.08 54.7816 108.08 54.9392 108.048L57.8386 107.45C57.9646 107.418 57.9646 107.355 57.8386 107.323L56.7355 106.914C56.578 106.851 56.4204 106.851 56.2628 106.882L53.395 107.481C53.2689 107.513 53.2689 107.576 53.395 107.607L54.4665 108.017Z" fill="white" stroke="black" stroke-width="0.3" stroke-miterlimit="10"/>
<path d="M54.4665 108.017C54.6241 108.08 54.7816 108.08 54.9392 108.048L57.8386 107.45C57.9646 107.418 57.9646 107.355 57.8386 107.323L56.7355 106.914C56.578 106.851 56.4204 106.851 56.2628 106.882L53.395 107.481C53.2689 107.513 53.2689 107.576 53.395 107.607L54.4665 108.017Z" fill="white" stroke="black" stroke-width="0.3" stroke-miterlimit="10"/>
<path d="M22.4792 109.813C22.6053 109.782 22.6053 109.719 22.5107 109.656L21.5968 109.246C21.4392 109.183 21.2817 109.183 21.1241 109.183L18.3508 109.75C18.2247 109.782 18.2247 109.845 18.3193 109.908L19.2017 110.349C19.3593 110.412 19.5168 110.443 19.6744 110.412L22.4792 109.813Z" fill="white" stroke="black" stroke-width="0.3" stroke-miterlimit="10"/>
<path d="M22.4792 109.813C22.6053 109.782 22.6053 109.719 22.5107 109.656L21.5968 109.246C21.4392 109.183 21.2817 109.183 21.1241 109.183L18.3508 109.75C18.2247 109.782 18.2247 109.845 18.3193 109.908L19.2017 110.349C19.3593 110.412 19.5168 110.443 19.6744 110.412L22.4792 109.813Z" fill="white" stroke="black" stroke-width="0.3" stroke-miterlimit="10"/>
<path d="M27.427 112.082C27.553 112.051 27.553 111.988 27.4585 111.925L26.5446 111.515C26.387 111.452 26.2294 111.452 26.1034 111.452L23.2355 112.051C23.1095 112.082 23.1095 112.145 23.204 112.208L24.0864 112.649C24.244 112.712 24.4016 112.744 24.5591 112.712L27.427 112.082Z" fill="white" stroke="black" stroke-width="0.3" stroke-miterlimit="10"/>
<path d="M27.427 112.082C27.553 112.051 27.553 111.988 27.4585 111.925L26.5446 111.515C26.387 111.452 26.2294 111.452 26.1034 111.452L23.2355 112.051C23.1095 112.082 23.1095 112.145 23.204 112.208L24.0864 112.649C24.244 112.712 24.4016 112.744 24.5591 112.712L27.427 112.082Z" fill="white" stroke="black" stroke-width="0.3" stroke-miterlimit="10"/>
<path d="M49.424 104.235C49.5501 104.203 49.5501 104.14 49.424 104.109L48.321 103.699C48.1634 103.636 48.0059 103.636 47.8483 103.668L45.138 104.235C45.012 104.266 45.012 104.329 45.138 104.361L46.2095 104.771C46.3671 104.834 46.5247 104.834 46.6822 104.802L49.424 104.235Z" fill="white" stroke="black" stroke-width="0.3" stroke-miterlimit="10"/>
<path d="M49.424 104.235C49.5501 104.203 49.5501 104.14 49.424 104.109L48.321 103.699C48.1634 103.636 48.0059 103.636 47.8483 103.668L45.138 104.235C45.012 104.266 45.012 104.329 45.138 104.361L46.2095 104.771C46.3671 104.834 46.5247 104.834 46.6822 104.802L49.424 104.235Z" fill="white" stroke="black" stroke-width="0.3" stroke-miterlimit="10"/>
<path d="M51.7243 106.945C51.8819 107.008 52.0395 107.008 52.1971 106.977L55.0334 106.378C55.1594 106.346 55.1594 106.283 55.0334 106.252L53.9304 105.842C53.7728 105.779 53.6152 105.779 53.4577 105.811L50.6529 106.378C50.5268 106.41 50.5268 106.473 50.6529 106.504L51.7243 106.945Z" fill="white" stroke="black" stroke-width="0.3" stroke-miterlimit="10"/>
<path d="M51.7243 106.945C51.8819 107.008 52.0395 107.008 52.1971 106.977L55.0334 106.378C55.1594 106.346 55.1594 106.283 55.0334 106.252L53.9304 105.842C53.7728 105.779 53.6152 105.779 53.4577 105.811L50.6529 106.378C50.5268 106.41 50.5268 106.473 50.6529 106.504L51.7243 106.945Z" fill="white" stroke="black" stroke-width="0.3" stroke-miterlimit="10"/>
<path d="M48.9832 105.842C49.1408 105.905 49.2983 105.905 49.4559 105.874L52.2292 105.306C52.3552 105.275 52.3552 105.212 52.2292 105.18L51.1262 104.771C50.9686 104.708 50.811 104.708 50.6535 104.739L47.9117 105.306C47.7856 105.338 47.7856 105.401 47.9117 105.433L48.9832 105.842Z" fill="white" stroke="black" stroke-width="0.3" stroke-miterlimit="10"/>
<path d="M48.9832 105.842C49.1408 105.905 49.2983 105.905 49.4559 105.874L52.2292 105.306C52.3552 105.275 52.3552 105.212 52.2292 105.18L51.1262 104.771C50.9686 104.708 50.811 104.708 50.6535 104.739L47.9117 105.306C47.7856 105.338 47.7856 105.401 47.9117 105.433L48.9832 105.842Z" fill="white" stroke="black" stroke-width="0.3" stroke-miterlimit="10"/>
<path d="M23.3616 115.328C23.2356 115.36 23.2041 115.423 23.3301 115.486L24.2125 115.927C24.3701 115.99 24.5277 116.022 24.6853 115.99L27.7107 115.36C27.8367 115.328 27.8367 115.265 27.7422 115.202L26.8598 114.792C26.7022 114.729 26.5446 114.698 26.3871 114.729L23.3616 115.328Z" fill="white" stroke="black" stroke-width="0.3" stroke-miterlimit="10"/>
<path d="M23.3616 115.328C23.2356 115.36 23.2041 115.423 23.3301 115.486L24.2125 115.927C24.3701 115.99 24.5277 116.022 24.6853 115.99L27.7107 115.36C27.8367 115.328 27.8367 115.265 27.7422 115.202L26.8598 114.792C26.7022 114.729 26.5446 114.698 26.3871 114.729L23.3616 115.328Z" fill="white" stroke="black" stroke-width="0.3" stroke-miterlimit="10"/>
<path d="M18.0041 110.727C18.1302 110.695 18.1302 110.632 18.0356 110.569L17.1532 110.128C16.9957 110.065 16.8381 110.034 16.6805 110.065L13.8757 110.632C13.7496 110.664 13.7496 110.727 13.8442 110.79L14.7266 111.2C14.8842 111.263 15.0417 111.294 15.1993 111.263L18.0041 110.727Z" fill="white" stroke="black" stroke-width="0.3" stroke-miterlimit="10"/>
<path d="M18.0041 110.727C18.1302 110.695 18.1302 110.632 18.0356 110.569L17.1532 110.128C16.9957 110.065 16.8381 110.034 16.6805 110.065L13.8757 110.632C13.7496 110.664 13.7496 110.727 13.8442 110.79L14.7266 111.2C14.8842 111.263 15.0417 111.294 15.1993 111.263L18.0041 110.727Z" fill="white" stroke="black" stroke-width="0.3" stroke-miterlimit="10"/>
<path d="M45.6107 100.453L45.2956 99.1612L43.4047 91.5662L42.7429 88.8244L40.7259 80.6306C40.6944 80.4415 40.5999 80.2524 40.4423 80.1264C40.3162 79.9688 40.1587 79.8743 39.9696 79.8112C39.749 79.7482 39.5284 79.7167 39.3078 79.7482L33.0994 80.9773L30.6097 81.4815L26.1347 82.3639L16.176 84.3178L12.1422 85.1057L6.28045 86.2717C6.12288 86.3032 5.9653 86.3663 5.83924 86.4608C5.71318 86.5554 5.58713 86.6814 5.49258 86.8075C5.39804 86.9335 5.33501 87.0911 5.30349 87.2487C5.27198 87.4063 5.27198 87.5638 5.33501 87.7214L7.2574 95.411L8.51799 100.485L10.2513 107.513C10.3458 107.859 10.5349 108.143 10.8501 108.332C11.1337 108.521 11.5119 108.584 11.827 108.521L13.9385 108.111L18.4136 107.229L20.9032 106.725L27.868 105.338L35.6521 103.794L37.8266 103.353L43.8459 102.155L44.5707 102.029C44.7598 101.998 44.9174 101.935 45.075 101.808C45.2325 101.714 45.3586 101.588 45.4531 101.43C45.5477 101.273 45.6107 101.115 45.6422 100.926C45.6737 100.8 45.6422 100.611 45.6107 100.453Z" fill="#9BCDFB" stroke="black" stroke-width="0.3" stroke-miterlimit="10"/>
<path d="M45.6107 100.453L45.2956 99.1612L43.4047 91.5662L42.7429 88.8244L40.7259 80.6306C40.6944 80.4415 40.5999 80.2524 40.4423 80.1264C40.3162 79.9688 40.1587 79.8743 39.9696 79.8112C39.749 79.7482 39.5284 79.7167 39.3078 79.7482L33.0994 80.9773L30.6097 81.4815L26.1347 82.3639L16.176 84.3178L12.1422 85.1057L6.28045 86.2717C6.12288 86.3032 5.9653 86.3663 5.83924 86.4608C5.71318 86.5554 5.58713 86.6814 5.49258 86.8075C5.39804 86.9335 5.33501 87.0911 5.30349 87.2487C5.27198 87.4063 5.27198 87.5638 5.33501 87.7214L7.2574 95.411L8.51799 100.485L10.2513 107.513C10.3458 107.859 10.5349 108.143 10.8501 108.332C11.1337 108.521 11.5119 108.584 11.827 108.521L13.9385 108.111L18.4136 107.229L20.9032 106.725L27.868 105.338L35.6521 103.794L37.8266 103.353L43.8459 102.155L44.5707 102.029C44.7598 101.998 44.9174 101.935 45.075 101.808C45.2325 101.714 45.3586 101.588 45.4531 101.43C45.5477 101.273 45.6107 101.115 45.6422 100.926C45.6737 100.8 45.6422 100.611 45.6107 100.453Z" stroke="black" stroke-width="0.3" stroke-miterlimit="10"/>
<path d="M56.3258 108.49C56.1997 108.521 56.1997 108.584 56.3258 108.616L57.3343 109.025C57.4918 109.088 57.6179 109.088 57.7755 109.057L60.5803 108.458C60.7063 108.426 60.7063 108.363 60.5803 108.332L59.5403 107.922C59.3827 107.891 59.2566 107.859 59.0991 107.891L56.3258 108.49Z" fill="black" stroke="black" stroke-width="0.3" stroke-miterlimit="10"/>
<path d="M56.3258 108.49C56.1997 108.521 56.1997 108.584 56.3258 108.616L57.3343 109.025C57.4918 109.088 57.6179 109.088 57.7755 109.057L60.5803 108.458C60.7063 108.426 60.7063 108.363 60.5803 108.332L59.5403 107.922C59.3827 107.891 59.2566 107.859 59.0991 107.891L56.3258 108.49Z" fill="black" stroke="black" stroke-width="0.3" stroke-miterlimit="10"/>
<path d="M56.3258 108.426C56.1997 108.458 56.1997 108.521 56.3258 108.552L57.3343 108.962C57.4918 109.025 57.6179 109.025 57.7755 108.994L60.5803 108.395C60.7063 108.363 60.7063 108.3 60.5803 108.269L59.5403 107.859C59.3827 107.796 59.2566 107.796 59.0991 107.828L56.3258 108.426Z" fill="white" stroke="black" stroke-width="0.3" stroke-miterlimit="10"/>
<path d="M31.6813 88.2255L31.9334 89.3285L38.2363 88.0049L37.9842 86.9019L31.6813 88.2255Z" fill="#519AF4"/>
<path d="M38.1101 86.7126L31.5236 88.0993L31.8387 89.5174L38.4253 88.1308L38.1101 86.7126ZM31.9333 89.3284L31.6812 88.2253L37.9841 86.9017L38.2362 88.0047L31.9333 89.3284Z" fill="black"/>
<path d="M33.068 91.3455C30.8935 91.7867 29.6014 94.1503 30.1372 96.5454C30.6729 98.9721 32.8789 100.579 35.0219 100.107C37.1964 99.6654 38.4885 97.3018 37.9528 94.8752C37.4171 92.48 35.211 90.8728 33.068 91.3455Z" fill="#519AF4"/>
<path d="M26.0716 84.7903L26.3237 85.9248L37.2593 83.5928L37.0072 82.4897L26.0716 84.7903Z" fill="#519AF4"/>
<path d="M37.6062 84.5698L26.387 86.9334L26.7022 88.3516L37.9214 85.988L37.6062 84.5698ZM26.8282 88.1625L26.5761 87.0595L37.5117 84.7589L37.7638 85.8619L26.8282 88.1625Z" fill="black"/>
<path d="M26.576 87.0596L26.8281 88.1626L37.7637 85.862L37.5116 84.759L26.576 87.0596Z" fill="#519AF4"/>
<path d="M37.1021 82.3008L25.8829 84.6644L26.198 86.0825L37.4487 83.7189L37.1021 82.3008ZM26.3241 85.925L26.0719 84.822L37.0075 82.4899L37.2596 83.5929L26.3241 85.925Z" fill="black"/>
<g opacity="0.3">
<path opacity="0.3" d="M37.7005 81.0085L24.4013 83.8133L28.8449 103.699L42.144 100.894L37.7005 81.0085ZM35.0533 100.264C32.8157 100.737 30.5467 99.0664 29.9794 96.5768C29.4121 94.0556 30.7988 91.6605 33.0363 91.1878C35.2423 90.715 37.5429 92.3538 38.0787 94.875C38.6459 97.3646 37.2908 99.7913 35.0533 100.264ZM26.7019 88.3515L26.3867 86.9333L37.6059 84.5697L37.9211 85.9879L26.7019 88.3515ZM26.1976 86.1139L25.8825 84.6958L37.1017 82.3322L37.4168 83.7503L26.1976 86.1139ZM38.1102 86.7127L38.4253 88.1309L31.8388 89.5175L31.5236 88.0993L38.1102 86.7127Z" fill="white"/>
</g>
<path d="M33.0051 91.1879C30.7675 91.6606 29.4124 94.0873 29.9481 96.5769C30.5154 99.0981 32.7845 100.737 35.022 100.264C37.2595 99.7914 38.6147 97.3648 38.0789 94.8436C37.5432 92.354 35.2426 90.7152 33.0051 91.1879ZM35.022 100.107C32.8475 100.548 30.673 98.972 30.1372 96.5454C29.6015 94.1188 30.9251 91.7867 33.0681 91.3455C35.2426 90.9043 37.4171 92.48 37.9529 94.9067C38.4886 97.3333 37.165 99.6654 35.022 100.107Z" fill="black"/>
<path d="M24.3069 83.6874C24.2754 83.6874 24.2439 83.7504 24.2439 83.7819L28.719 103.825C28.719 103.857 28.782 103.888 28.8135 103.888L42.2387 101.052C42.2702 101.052 42.3018 100.989 42.3018 100.957L37.8267 80.9141C37.8267 80.8826 37.7637 80.8511 37.7321 80.8511L24.3069 83.6874ZM28.845 103.699L24.4014 83.8134L37.7006 81.0086L42.1442 100.926L28.845 103.699Z" fill="black"/>
<path d="M20.4309 92.7319L20.8721 94.7804L22.6685 94.4022L22.1957 92.3853L20.4309 92.7319Z" fill="#519AF4"/>
<path d="M16.9641 87.9102L17.4368 89.9586L19.2017 89.5804L18.7605 87.532L16.9641 87.9102Z" fill="#519AF4"/>
<path d="M22.3212 92.1648L20.2412 92.606L20.777 94.9696L22.8569 94.5284L22.3212 92.1648ZM20.8715 94.7805L20.4303 92.7321L22.2266 92.3539L22.6678 94.4023L20.8715 94.7805Z" fill="black"/>
<path d="M20.0521 92.6689L17.9722 93.1102L18.5079 95.4737L20.5879 95.0325L20.0521 92.6689ZM18.6025 95.2847L18.1613 93.2362L19.9576 92.858L20.3988 94.9065L18.6025 95.2847Z" fill="black"/>
<path d="M18.8549 87.343L16.7749 87.7842L17.3107 90.1478L19.3906 89.7066L18.8549 87.343ZM17.4367 89.9587L16.9955 87.9103L18.7918 87.5321L19.2331 89.5806L17.4367 89.9587Z" fill="black"/>
<path d="M16.5858 87.8472L14.5059 88.2884L15.0416 90.652L17.1216 90.2108L16.5858 87.8472ZM15.1677 90.4314L14.7265 88.3829L16.4913 88.0047L16.9325 90.0532L15.1677 90.4314Z" fill="black"/>
<path d="M19.4535 90.0217L17.3735 90.4629L17.9093 92.8265L19.9893 92.3853L19.4535 90.0217ZM18.0038 92.6059L17.5626 90.5575L19.359 90.1793L19.8002 92.2593L18.0038 92.6059Z" fill="black"/>
<path d="M17.185 90.4946L15.105 90.9358L15.6407 93.2994L17.7207 92.8582L17.185 90.4946ZM15.7353 93.1103L15.2941 91.0619L17.0589 90.6837L17.5001 92.7322L15.7353 93.1103Z" fill="black"/>
<path d="M14.6951 88.383L15.1678 90.4315L16.9326 90.0533L16.4914 88.0364L14.6951 88.383Z" fill="#519AF4"/>
<path d="M12.4256 88.8872L12.8983 90.9357L14.6631 90.5575L14.2219 88.509L12.4256 88.8872Z" fill="#519AF4"/>
<path d="M14.3168 88.3201L12.2368 88.7613L12.7726 91.1249L14.8525 90.6837L14.3168 88.3201ZM12.8986 90.9358L12.4574 88.8873L14.2222 88.5092L14.6634 90.5576L12.8986 90.9358Z" fill="black"/>
<path d="M15.8923 93.709L16.3336 95.7574L18.1299 95.3793L17.6572 93.3308L15.8923 93.709Z" fill="#519AF4"/>
<path d="M18.1614 93.2363L18.6026 95.2848L20.3989 94.9066L19.9262 92.8582L18.1614 93.2363Z" fill="#519AF4"/>
<path d="M17.7836 93.1416L15.7036 93.5828L16.2394 95.9464L18.3193 95.5052L17.7836 93.1416ZM16.3339 95.7573L15.8927 93.7089L17.6575 93.3307L18.0987 95.3791L16.3339 95.7573Z" fill="black"/>
<path d="M15.5141 93.6145L13.4341 94.0557L13.9698 96.4193L16.0498 95.9781L15.5141 93.6145ZM14.0644 96.2302L13.6232 94.1818L15.388 93.8036L15.8292 95.852L14.0644 96.2302Z" fill="black"/>
<g opacity="0.3">
<path opacity="0.3" d="M22.8254 84.1599L25.5356 96.3246L12.2365 99.1294L9.52621 86.9647L22.8254 84.1599ZM13.6546 97.1124L23.3926 95.064L21.4072 86.1768L11.6692 88.2253L13.6546 97.1124Z" fill="white"/>
</g>
<path d="M21.723 89.5176L22.2588 91.8812L20.1788 92.3224L19.6431 89.9588L21.723 89.5176ZM20.2734 92.1333L22.0697 91.7551L21.6285 89.7067L19.8322 90.0848L20.2734 92.1333Z" fill="black"/>
<path d="M18.004 92.606L17.5628 90.5576L19.3591 90.2109L19.8003 92.2594L18.004 92.606Z" fill="#519AF4"/>
<path d="M13.0242 91.5344L13.4654 93.5829L15.2617 93.2047L14.789 91.1563L13.0242 91.5344Z" fill="#519AF4"/>
<path d="M15.2937 91.0618L15.7349 93.1102L17.5313 92.732L17.0585 90.6836L15.2937 91.0618Z" fill="#519AF4"/>
<path d="M14.9154 90.9673L12.8355 91.4085L13.3712 93.7721L15.4512 93.3309L14.9154 90.9673ZM13.4657 93.583L13.0245 91.5345L14.7894 91.1564L15.2306 93.2048L13.4657 93.583Z" fill="black"/>
<path d="M9.43181 86.8073L22.857 83.9709C22.8886 83.9709 22.9516 84.0025 22.9516 84.034L25.6934 96.3562C25.6934 96.3877 25.6934 96.4507 25.6303 96.4507L12.2051 99.2871C12.1736 99.2871 12.1106 99.2555 12.1106 99.224L9.36878 86.9018C9.36878 86.8703 9.4003 86.8073 9.43181 86.8073ZM12.2681 99.1295L25.5673 96.3247L22.857 84.16L9.55787 86.9648L12.2681 99.1295Z" fill="black"/>
<path d="M20.273 92.1332L19.8318 90.0847L21.6281 89.7065L21.7227 90.1793L22.0693 91.755L20.273 92.1332Z" fill="#519AF4"/>
<path d="M21.4076 86.177L23.3931 95.0641L13.655 97.1126L11.6696 88.2255L21.4076 86.177ZM13.7811 96.9235L23.2355 94.9381L21.3131 86.3661L11.8587 88.3515L13.7811 96.9235Z" fill="black"/>
<path d="M21.6597 89.234L19.5797 89.6752L19.044 87.3116L21.1239 86.8704L21.6597 89.234ZM19.233 87.4376L19.6743 89.4861L21.4706 89.1079L21.0294 87.0594L19.233 87.4376Z" fill="black"/>
<path d="M21.3135 86.366L23.2358 94.9379L13.7815 96.9234L11.8591 88.3514L21.3135 86.366ZM14.5378 88.2568L15.0736 90.6204L17.1535 90.1792L16.6178 87.8156L14.5378 88.2568ZM17.185 90.4944L15.1051 90.9356L15.6408 93.2992L17.7208 92.858L17.185 90.4944ZM17.9099 92.795L19.9898 92.3537L19.4541 89.9901L17.3741 90.4314L17.9099 92.795ZM16.8069 87.7841L17.3426 90.1477L19.4226 89.7065L18.8868 87.3429L16.8069 87.7841ZM21.1244 86.8702L19.0444 87.3114L19.5801 89.675L21.6601 89.2338L21.1244 86.8702ZM21.7231 89.5174L19.6432 89.9586L20.1789 92.3222L22.2589 91.881L21.7231 89.5174ZM22.8262 94.5598L22.2904 92.1962L20.2104 92.6374L20.7462 95.001L22.8262 94.5598ZM20.5571 95.0325L20.0213 92.6689L17.9414 93.1101L18.4771 95.4737L20.5571 95.0325ZM18.288 95.5052L17.7523 93.1416L15.6723 93.5828L16.2081 95.9464L18.288 95.5052ZM13.9705 96.4191L16.0505 95.9779L15.5148 93.6143L13.4348 94.0555L13.9705 96.4191ZM13.3718 93.7719L15.4517 93.3307L14.916 90.9671L12.836 91.4083L13.3718 93.7719ZM14.853 90.6835L14.3172 88.3199L12.2372 88.7611L12.773 91.1247L14.853 90.6835Z" fill="#519AF4"/>
<path d="M21.0295 87.0593L21.4707 89.1078L19.7059 89.486L19.2332 87.4375L21.0295 87.0593Z" fill="#519AF4"/>
<path d="M21.8174 100.957L20.935 104.644L26.2925 103.51L24.9374 102.029L24.2125 102.754L21.8174 100.957ZM24.9689 102.281L26.0088 103.415L21.1556 104.455L21.9435 101.241L24.2755 103.006L24.9689 102.281Z" fill="black"/>
<g opacity="0.3">
<path opacity="0.3" d="M25.9454 98.1211L19.2643 99.5393L20.5879 105.464L27.269 104.046L25.9454 98.1211ZM26.3236 103.542L20.9661 104.676L21.8485 100.989L24.2436 102.817L24.9685 102.092L26.3236 103.542Z" fill="white"/>
</g>
<path d="M13.6233 94.1816L14.0645 96.2301L15.8608 95.8519L15.3881 93.8035L13.6233 94.1816Z" fill="#519AF4"/>
<path d="M21.9119 101.241L21.1555 104.455L26.0088 103.415L24.9688 102.281L24.244 103.006L21.9119 101.241Z" fill="#519AF4"/>
<path d="M19.1699 99.4133C19.1384 99.4133 19.1069 99.4763 19.1069 99.5078L20.462 105.59C20.462 105.622 20.5251 105.653 20.5566 105.653L27.3637 104.204C27.3952 104.204 27.4268 104.14 27.4268 104.109L26.0716 98.0267C26.0716 97.9951 26.0086 97.9636 25.9771 97.9636L19.1699 99.4133ZM20.5881 105.464L19.2645 99.5394L25.9456 98.1212L27.2692 104.046L20.5881 105.464Z" fill="black"/>
<path d="M17.8778 104.014C17.5942 104.077 17.4051 104.393 17.4681 104.708C17.5312 105.023 17.8463 105.244 18.1299 105.18C18.4136 105.117 18.6027 104.802 18.5081 104.487C18.4451 104.172 18.1615 103.951 17.8778 104.014Z" fill="#519AF4"/>
<path d="M17.4994 102.407C17.2158 102.47 17.0267 102.785 17.0897 103.1C17.1527 103.415 17.4679 103.636 17.7515 103.573C18.0352 103.51 18.2242 103.195 18.1297 102.88C18.0982 102.565 17.783 102.344 17.4994 102.407Z" fill="#519AF4"/>
<path d="M17.8463 103.857C17.4681 103.92 17.2475 104.329 17.342 104.739C17.4366 105.149 17.8148 105.432 18.1614 105.338C18.5396 105.275 18.7602 104.865 18.6657 104.455C18.5711 104.077 18.1929 103.794 17.8463 103.857ZM18.1299 105.212C17.8463 105.275 17.5311 105.054 17.4681 104.739C17.4051 104.424 17.5627 104.109 17.8778 104.046C18.1614 103.983 18.4451 104.203 18.5396 104.519C18.6026 104.834 18.4135 105.149 18.1299 105.212Z" fill="black"/>
<path d="M13.4975 101.903L13.529 102.061L16.1763 101.525L16.1448 101.367L13.4975 101.903Z" fill="black"/>
<path d="M13.8439 103.542L13.907 103.699L16.5542 103.132L16.5227 102.974L13.8439 103.542Z" fill="black"/>
<path d="M12.5518 100.8C12.5203 100.8 12.4888 100.863 12.4888 100.894L13.8439 106.977C13.8439 107.008 13.8754 107.04 13.9385 107.04L19.5166 105.874C19.5481 105.874 19.5796 105.811 19.5796 105.779L18.2245 99.6968C18.2245 99.6653 18.1614 99.6338 18.1299 99.6338L12.5518 100.8ZM13.97 106.851L12.6464 100.926L18.0984 99.7914L19.422 105.716L13.97 106.851Z" fill="black"/>
<path d="M17.1212 100.642C16.743 100.705 16.5224 101.115 16.6169 101.525C16.7115 101.934 17.0897 102.218 17.4363 102.123C17.8145 102.06 18.0351 101.651 17.9406 101.241C17.846 100.831 17.4678 100.548 17.1212 100.642ZM17.4048 101.966C17.1212 102.029 16.806 101.808 16.743 101.493C16.68 101.178 16.8376 100.863 17.1527 100.8C17.4363 100.737 17.72 100.957 17.8145 101.273C17.8775 101.588 17.6884 101.903 17.4048 101.966Z" fill="black"/>
<path d="M17.1527 100.8C16.8691 100.863 16.68 101.178 16.743 101.493C16.8061 101.808 17.1212 102.029 17.4048 101.966C17.6885 101.903 17.8776 101.588 17.783 101.273C17.72 100.957 17.4364 100.737 17.1527 100.8Z" fill="#519AF4"/>
<g opacity="0.3">
<path opacity="0.3" d="M18.0983 99.7913L12.6462 100.926L13.9698 106.851L19.4219 105.716L18.0983 99.7913ZM17.4365 102.123C17.0583 102.186 16.6801 101.934 16.6171 101.525C16.5225 101.115 16.7431 100.705 17.1213 100.642C17.4995 100.579 17.8777 100.831 17.9407 101.241C18.0352 101.651 17.8146 102.06 17.4365 102.123ZM17.8146 103.762C17.4365 103.825 17.0583 103.573 16.9637 103.163C16.8692 102.754 17.0898 102.344 17.468 102.281C17.8461 102.218 18.2243 102.47 18.2873 102.88C18.3819 103.258 18.1613 103.668 17.8146 103.762ZM18.1613 105.369C17.7831 105.432 17.4049 105.18 17.3419 104.771C17.2474 104.361 17.468 103.951 17.8461 103.888C18.2243 103.825 18.6025 104.077 18.6655 104.487C18.7601 104.897 18.5395 105.275 18.1613 105.369ZM13.5286 102.06L13.4971 101.903L16.1444 101.335L16.1759 101.493L13.5286 102.06ZM14.2535 105.306L14.222 105.149L16.8692 104.581L16.9007 104.739L14.2535 105.306ZM13.9068 103.699L13.8753 103.542L16.5225 102.974L16.554 103.132L13.9068 103.699Z" fill="white"/>
</g>
<path d="M17.4686 102.25C17.0904 102.313 16.8698 102.722 16.9643 103.132C17.0589 103.542 17.4371 103.825 17.8152 103.731C18.1934 103.668 18.414 103.258 18.3195 102.848C18.2249 102.439 17.8468 102.187 17.4686 102.25ZM17.7837 103.573C17.5001 103.636 17.1849 103.416 17.1219 103.101C17.0589 102.785 17.2165 102.47 17.5316 102.407C17.8152 102.344 18.0989 102.565 18.1934 102.88C18.2249 103.227 18.0674 103.542 17.7837 103.573Z" fill="black"/>
<path d="M14.2221 105.149L14.2536 105.306L16.9009 104.771L16.8694 104.613L14.2221 105.149Z" fill="black"/>
</g>
<mask id="mask0_2718_8702" style="mask-type:alpha" maskUnits="userSpaceOnUse" x="2" y="77" width="47" height="36">
<path d="M48.2451 104.9L8.7888 112.652L2.51738 87.2515C2.45435 86.9994 2.45436 86.7788 2.48587 86.5266C2.51739 86.2745 2.61193 86.0539 2.73798 85.8333C2.86404 85.6127 3.05313 85.4551 3.24222 85.2976C3.46282 85.1715 3.68343 85.0455 3.93554 85.0139L39.7677 77.9547C40.2404 77.8601 40.7131 77.9547 41.1228 78.2068C41.5325 78.4589 41.8161 78.8371 41.9107 79.3098L48.2451 104.9Z" fill="#D5DDE0" stroke="black" stroke-width="0.2" stroke-linecap="round" stroke-linejoin="round"/>
</mask>
<g mask="url(#mask0_2718_8702)">
<g style="mix-blend-mode:overlay">
<path d="M28.3965 100.777L93.7412 74.136L49.0052 34.9291L28.3965 100.777Z" fill="#FBE62E"/>
</g>
</g>
<path d="M83.9523 22.5901H82.1662C81.9266 22.5901 81.7088 22.3941 81.7088 22.1327V21.4139C81.7088 21.1744 81.9048 20.9565 82.1662 20.9565H83.9523C84.1919 20.9565 84.4097 21.1526 84.4097 21.4139V22.1327C84.4097 22.3941 84.1919 22.5901 83.9523 22.5901Z" stroke="black" stroke-width="0.3" stroke-miterlimit="10"/>
<path d="M81.6872 21.2615H84.4099C84.5841 21.2615 84.7366 21.1744 84.8019 21.0219C86.3919 17.9072 91.3145 14.9886 91.3145 10.5452C91.3145 6.01479 87.6552 2.61694 83.1248 2.61694C78.5943 2.61694 74.9351 6.01479 74.9351 10.5452C74.9351 15.2935 79.618 18.0161 81.2734 21.0437C81.3823 21.1744 81.5348 21.2615 81.6872 21.2615Z" fill="#4AC7D3" stroke="black" stroke-width="0.3" stroke-miterlimit="10"/>
<path d="M84.1925 25.0516H81.9055C81.6659 25.0516 81.4481 24.8556 81.4481 24.5942V22.7428C81.4481 22.5032 81.6441 22.2854 81.9055 22.2854H84.1925C84.4321 22.2854 84.6499 22.4814 84.6499 22.7428V24.5942C84.6499 24.8556 84.4539 25.0516 84.1925 25.0516Z" fill="#FFC664" stroke="black" stroke-width="0.3" stroke-miterlimit="10"/>
<path d="M84.7364 23.2871C85.0849 23.3525 85.3027 23.4396 85.3027 23.5267C85.3027 23.7227 84.3008 23.8752 83.0811 23.8752C81.8613 23.8752 80.8594 23.7227 80.8594 23.5267C80.8594 23.4396 81.0554 23.3742 81.3821 23.3089" stroke="black" stroke-width="0.3" stroke-miterlimit="10"/>
<path d="M81.5339 21.0222C80.9676 19.9331 80.031 18.9094 79.0291 17.8203C78.9638 17.755 78.8984 17.6679 78.8331 17.6025C80.0964 18.3431 81.5339 18.7352 83.0586 18.7352C84.4526 18.7352 85.803 18.3867 87.001 17.755C85.999 18.8658 85.0625 19.9113 84.5179 21.0222H81.5339Z" fill="#008D98"/>
<path opacity="0.2" d="M83.1458 2.61694C82.3399 2.61694 81.5558 2.72585 80.8152 2.94366C80.2707 4.03271 79.944 5.25245 79.944 6.53753C79.944 10.8937 83.4725 14.4441 87.8505 14.4441C88.7217 14.4441 89.5494 14.3134 90.3117 14.052C90.9216 12.9847 91.3354 11.8303 91.3354 10.5452C91.3137 6.01479 87.6545 2.61694 83.1458 2.61694Z" fill="white"/>
<path d="M89.375 15.3806L84.6485 22.7644L83.0585 21.3268L81.4467 22.7644L77.0687 15.8816" stroke="black" stroke-width="0.3" stroke-miterlimit="10" stroke-linejoin="round"/>
<path d="M84.5327 7.43042L82.5437 11.7781L83.283 12.0773L85.6064 7.43042H84.5327ZM80.6075 11.3556V12.0421H84.9728V11.3556H80.6075ZM80.6075 12.8518V13.5383H84.9728V12.8518H80.6075ZM82.3149 11.1268V15.228H83.2654V11.1268H82.3149ZM83.0542 11.7781L81.0476 7.43042H79.9915L82.3149 12.0773L83.0542 11.7781Z" fill="#15357A"/>
<path d="M78.0922 78.6982C60.0722 78.6982 45.4642 64.0901 45.4642 46.0701C45.4642 28.0502 60.0722 13.4421 78.0922 13.4421C96.1122 13.4421 110.72 28.0502 110.72 46.0701C110.72 64.0901 96.1122 78.6982 78.0922 78.6982Z" fill="#E7D4FA" stroke="black" stroke-width="0.3" stroke-miterlimit="10"/>
<path d="M75.9359 74.429C76.1972 74.429 76.4804 74.429 76.7418 74.4072H76.7853C76.8942 74.4072 77.0031 74.429 77.0903 74.429C78.0704 74.429 78.9852 73.9934 79.6822 73.1875C80.401 72.338 80.7495 71.1837 80.5535 70.1164C80.2703 68.3739 79.5515 66.7185 78.8763 65.1285C78.7674 64.8454 78.6367 64.584 78.5278 64.3008C77.8526 62.7326 77.7655 61.2733 77.8526 59.5744C77.9397 57.6358 78.1575 57.0478 79.3119 55.632C80.2267 54.5212 81.294 53.4103 82.6662 52.147L82.688 52.1252H82.7098C84.2998 51.4718 85.672 50.1214 86.2819 48.5967C86.8046 47.3334 86.6957 45.482 86.0423 44.1098C85.3017 42.5851 84.0384 41.801 82.7969 41.1911C81.7296 40.6684 80.6188 40.4288 79.3555 40.4288C76.5893 40.4288 73.7578 41.6703 71.2747 42.7594C70.8827 42.9336 70.4688 43.1079 70.055 43.2821C66.2651 44.8939 61.9742 46.7018 61.5386 51.1886C61.3861 52.7133 61.8435 54.3469 62.2574 55.9369C62.3663 56.3072 62.4534 56.6993 62.5623 57.0478V57.0695V57.0913C62.1049 58.3982 61.3644 59.5744 60.3842 60.6198L60.3406 60.6634H60.2971C58.9684 60.5109 57.9883 59.5526 57.7269 58.1804C57.5527 57.3091 57.4438 56.3725 57.3566 55.1092V55.0875V55.0657C57.4438 54.6736 57.5091 54.2816 57.5744 53.9113C57.6398 53.5628 57.7051 53.1925 57.7705 52.8658L57.9883 51.7767C58.1408 50.9708 58.2932 50.1649 58.4675 49.3808C58.4892 49.2501 58.511 49.1194 58.5328 48.967C58.6853 48.1611 58.8377 47.2463 59.3169 46.5928C59.7526 45.983 60.4713 45.6998 61.1465 45.4167C61.3644 45.3295 61.5822 45.2424 61.8 45.1335C62.7148 44.6979 63.586 44.1534 64.3484 43.5217C65.0236 42.9554 65.677 42.2584 66.374 41.3436C66.4393 41.2565 66.5047 41.1694 66.57 41.0605C67.0492 40.407 67.463 39.8407 68.3561 39.6665C68.8135 39.5794 69.2709 39.5576 69.7065 39.5358C70.2728 39.514 70.8609 39.4922 71.449 39.318C72.4073 39.0348 73.2786 38.5556 74.0409 37.9022C74.7379 37.3141 75.3042 36.6171 75.7398 35.7894C75.9577 35.3756 76.1319 34.94 76.2626 34.5697C76.3062 34.4608 76.4368 33.8509 76.5022 33.6331L76.524 33.5678L76.5893 33.546C77.5912 33.2628 77.918 32.3698 77.809 31.6075C77.7219 30.9541 77.2645 30.2788 76.4586 30.2788C76.3062 30.2788 76.1537 30.3006 76.0012 30.3442C75.9794 30.3442 75.8705 30.3877 75.8705 30.3877H75.8488C74.8468 30.1482 73.8449 29.9303 72.8647 29.6908C72.7123 29.6472 72.5598 29.6254 72.4073 29.6254C71.841 29.6254 71.2965 29.865 70.9916 30.2571C70.7084 30.6056 70.6213 31.0412 70.7084 31.4986C70.7738 31.8471 70.8827 32.152 70.9916 32.4569C71.2965 33.3717 71.5797 34.1777 70.6213 35.1578C70.4688 35.3103 70.2946 35.441 70.0986 35.5934L69.9896 35.6588L69.9461 35.5499C69.7065 35.0489 69.2927 34.6568 68.7917 34.4608C68.4432 34.3301 68.0729 34.2648 67.6373 34.2648C66.875 34.2648 66.0908 34.4826 65.5028 34.6568C65.0454 34.8093 64.5662 34.9618 64.087 35.136C63.4336 35.3538 62.7801 35.5934 62.1049 35.7894H62.0831H62.0613C60.798 35.4627 59.5565 34.5479 59.8179 33.2846C60.0139 32.4134 61.0594 32.3045 62.0396 32.3045C62.2574 32.3045 62.4752 32.3045 62.6712 32.3045C62.8672 32.3045 63.0415 32.3045 63.2157 32.3045C63.4989 32.3045 63.6949 32.2827 63.8256 32.2609C64.4573 32.152 65.1325 31.5204 65.1543 30.8016C65.176 28.7324 63.4771 28.0572 61.8218 27.6651C59.8397 27.2077 58.0101 26.9681 56.2022 26.9463C56.0498 26.9463 55.8973 26.9463 55.7448 26.9463C55.4835 26.9463 55.2003 26.9246 54.9172 26.9246C53.5885 26.9246 52.1292 27.0552 51.1708 27.9918C51.0619 28.1007 50.953 28.2314 50.8223 28.3839C46.3136 35.3756 44.6801 43.7395 46.2047 51.9292C46.6621 54.3905 47.4027 56.7864 48.4046 59.0734C49.7333 60.9901 51.9332 61.7742 53.6974 62.2316H53.7192L53.741 62.2534C53.8499 62.3623 53.9588 62.4495 54.0895 62.5584C55.5488 63.7781 57.3131 64.3662 58.6853 64.7582H58.7071L58.7288 64.78C58.8377 64.8671 58.9467 64.9107 59.0338 64.9543C61.0594 65.7602 62.5187 66.5879 63.7167 67.5898C64.4137 68.1779 65.0236 68.8749 65.6117 69.5283C66.178 70.1599 66.7661 70.8352 67.4195 71.4015C69.6847 73.3835 72.6469 74.429 75.9359 74.429Z" fill="#BD80FF" stroke="black" stroke-width="0.3"/>
<path d="M101.159 68.9839C108.347 61.7744 111.766 51.4938 110.329 41.4309C109.675 41.6705 109.24 42.2368 109.109 42.9991L109.087 43.1298C108.891 44.4149 108.673 45.8742 108.02 47.0069C107.519 47.9217 106.473 48.183 105.58 48.4008C105.428 48.4444 105.275 48.4662 105.145 48.5097L104.971 48.5533C103.707 48.9018 102.291 49.2939 101.551 50.3829C101.181 50.9492 101.028 51.6027 101.159 52.2561C101.202 52.4521 101.268 52.6481 101.398 52.8877L101.442 52.9531L101.311 53.0838C100.81 53.5412 100.484 53.9986 100.309 54.456C100.222 54.6738 100.179 54.9569 100.157 55.1747L100.135 55.3708H100.004C99.7213 55.3926 99.4381 55.3926 99.155 55.4361C96.8897 55.6975 94.1235 56.939 93.1652 59.6616C92.2722 62.21 93.383 64.7366 95.9314 65.9781L96.3017 66.1524C98.0441 67.0454 99.6777 67.8295 101.159 68.9839Z" fill="#BD80FF" stroke="black" stroke-width="0.3"/>
<path d="M106.429 41.4528C107.54 41.4528 108.128 40.5162 108.302 39.6885C108.346 39.4925 108.368 39.2747 108.389 39.0351C108.542 38.1203 108.803 37.2272 109.195 36.3778C107.344 30.4098 103.837 25.117 99.0453 21.0875C98.7622 20.9568 98.479 20.8697 98.2177 20.8479C98.1741 20.8479 98.1088 20.8479 98.0652 20.8479C97.4118 20.8479 96.9326 21.2182 96.4316 21.632C96.3009 21.7191 96.192 21.828 96.0613 21.9152C95.6039 22.2419 95.0812 22.5033 94.4713 22.6557H94.4495H94.4278C94.2971 22.6339 94.1446 22.6122 93.9921 22.6122C93.8179 22.6122 93.6219 22.6339 93.3823 22.6557C92.4457 22.7864 91.9665 23.6359 91.8358 24.3764C91.7487 24.8774 91.6616 25.3784 91.5527 25.8793C91.3566 26.8595 91.1824 27.8832 91.0081 28.9069C90.8339 29.9959 90.8992 31.4553 92.2061 32.3047C92.5328 32.5225 92.9031 32.6314 93.2734 32.6314C94.2317 32.6314 95.0376 31.8909 95.1901 30.889C95.2337 30.6276 95.3861 30.4751 95.6039 30.4751C95.7128 30.4751 95.8435 30.5187 95.9524 30.6058C96.2356 30.7801 96.4098 31.3681 96.5623 31.8909C96.6276 32.1087 96.693 32.3265 96.7366 32.4354C97.2593 33.5245 98.1088 34.4611 99.1978 35.158C99.5899 35.4194 100.2 35.659 100.853 35.9204C102.552 36.6174 104.665 37.4668 104.578 39.1004C104.578 39.144 104.556 39.1875 104.556 39.2311C104.556 39.2747 104.534 39.34 104.534 39.3836C104.491 39.8628 104.643 40.3419 104.97 40.734C105.297 41.1261 105.776 41.3874 106.277 41.431C106.32 41.4528 106.386 41.4528 106.429 41.4528Z" fill="#BD80FF" stroke="black" stroke-width="0.3"/>
<path d="M93.4913 20.5647C94.1012 20.5647 94.6893 20.4123 95.1903 20.1073C95.6694 19.8242 96.0179 19.4103 96.1704 18.9311C94.2972 17.6896 92.2934 16.6224 90.2242 15.7947C90.0282 16.0778 89.9192 16.3828 89.8975 16.7095C89.8539 18.0817 90.4856 19.345 91.531 19.9984C92.0974 20.3687 92.7943 20.5647 93.4913 20.5647Z" fill="#BD80FF" stroke="black" stroke-width="0.3"/>
<path d="M82.0998 24.5288C82.2305 24.5288 82.383 24.4852 82.4919 24.4199H82.5137H82.5355C82.8404 24.3545 83.0364 24.1367 83.0582 23.8318V23.7882L83.08 23.7664C84.7136 22.1982 85.7155 20.0637 85.8244 17.9073C85.8898 16.7747 85.8462 15.5114 85.1492 14.8144C84.6047 14.2699 83.6899 14.0303 82.8622 13.8561C81.3157 13.6165 79.7257 13.5076 78.1357 13.5076C76.8724 13.5076 75.5873 13.5729 74.324 13.7254C73.9973 13.8125 73.6706 13.8996 73.3656 13.9868C72.0152 14.4224 70.948 15.2936 70.4906 16.3173C70.1421 17.1014 70.1638 17.9073 70.5341 18.735C70.643 18.9964 70.9262 19.1706 71.2093 19.1924C72.4944 19.2795 73.8448 19.4102 75.217 19.5627L75.3259 19.5845C76.3279 19.6934 77.4605 19.8241 78.2882 20.5211C78.898 21.022 79.3119 21.6755 79.7039 22.3289C80.2267 23.1566 80.7276 23.9625 81.6424 24.4417C81.8167 24.4852 81.9692 24.5288 82.0998 24.5288Z" fill="#BD80FF" stroke="black" stroke-width="0.3"/>
<path d="M74.5636 26.3149C74.7378 26.3149 74.8903 26.2931 75.0428 26.2496C76.1536 25.9664 76.8724 24.9427 76.6981 23.8972C76.5021 22.721 75.4131 22.1765 74.4765 22.1765C74.3676 22.1765 74.2587 22.1765 74.1498 22.1983C73.627 22.2636 73.1478 22.4814 72.8211 22.7864L72.7993 22.8082H72.7775C72.6033 22.8517 72.429 22.9171 72.2766 22.9824C71.4925 23.3527 71.1657 24.3328 71.536 25.1605C71.7756 25.705 72.3637 26.0535 73.0171 26.0535C73.126 26.0535 73.235 26.0535 73.3439 26.0318H73.3656L73.431 26.0535C73.5399 26.0971 73.6488 26.1407 73.7577 26.1624C74.0408 26.2714 74.3022 26.3149 74.5636 26.3149Z" fill="#BD80FF" stroke="black" stroke-width="0.3"/>
<g opacity="0.37">
<path opacity="0.37" d="M66.3744 15.3372C57.0956 22.612 52.086 34.6569 54.3948 47.0286C57.7055 64.7366 74.7383 76.433 92.468 73.1223C94.5155 72.752 96.4758 72.1857 98.3271 71.4451C94.3194 74.5816 89.5494 76.8251 84.213 77.8052C66.505 81.1159 49.4505 69.4195 46.1398 51.7115C43.2211 36.0509 52.0206 20.9131 66.3744 15.3372Z" fill="#15357A"/>
</g>
<path d="M46.4229 39.6448C29.4119 40.8863 18.0639 43.1297 18.0639 45.6781C18.0639 49.5987 44.7239 52.757 77.5915 52.757C110.459 52.757 137.119 49.5987 137.119 45.6781C137.119 43.1733 126.272 40.9952 109.915 39.7319" stroke="black" stroke-width="0.3" stroke-miterlimit="10"/>
<path d="M14.6865 54.2599H12.2688C11.9203 54.2599 11.6589 53.9768 11.6589 53.6501V52.6699C11.6589 52.3214 11.9421 52.0601 12.2688 52.0601H14.6865C15.035 52.0601 15.2964 52.3432 15.2964 52.6699V53.6501C15.2964 53.9768 15.035 54.2599 14.6865 54.2599Z" stroke="black" stroke-width="0.3" stroke-miterlimit="10"/>
<path d="M11.6374 52.4521H15.3402C15.558 52.4521 15.7758 52.3214 15.8847 52.1253C18.0411 47.9216 24.7061 43.9357 24.7061 37.9241C24.7061 31.8036 19.74 27.186 13.6195 27.186C7.49902 27.186 2.53294 31.8036 2.53294 37.9241C2.53294 44.3495 8.87123 48.0305 11.1147 52.1253C11.2018 52.3432 11.4196 52.4521 11.6374 52.4521Z" fill="#4AC7D3" stroke="black" stroke-width="0.3" stroke-miterlimit="10"/>
<path d="M15.0347 57.5924H11.92C11.5715 57.5924 11.3101 57.3093 11.3101 56.9826V54.4995C11.3101 54.151 11.5933 53.8896 11.92 53.8896H15.0347C15.3832 53.8896 15.6445 54.1728 15.6445 54.4995V56.9826C15.6445 57.3311 15.3614 57.5924 15.0347 57.5924Z" fill="#FFC664" stroke="black" stroke-width="0.3" stroke-miterlimit="10"/>
<path d="M15.7543 55.1965C16.2334 55.2837 16.5166 55.3926 16.5166 55.5015C16.5166 55.7628 15.1662 55.9806 13.5108 55.9806C11.8555 55.9806 10.505 55.7628 10.505 55.5015C10.505 55.3926 10.7664 55.2837 11.202 55.1965" stroke="black" stroke-width="0.3" stroke-miterlimit="10"/>
<path d="M11.4209 52.1254C10.6586 50.6661 9.3735 49.2721 8.04486 47.791C7.95773 47.6821 7.8706 47.595 7.76169 47.4861C9.46061 48.488 11.4209 49.0325 13.4683 49.0325C15.3633 49.0325 17.1711 48.5751 18.8047 47.6821C17.4325 49.185 16.1692 50.6226 15.4504 52.1037H11.4209V52.1254Z" fill="#008D98"/>
<path opacity="0.2" d="M13.5987 27.1863C12.4879 27.1863 11.4424 27.3387 10.4187 27.6219C9.67814 29.0812 9.24252 30.7366 9.24252 32.5009C9.24252 38.4035 14.0343 43.1954 19.937 43.1954C21.1132 43.1954 22.224 42.9993 23.2695 42.6508C24.0972 41.2133 24.6635 39.645 24.6635 37.9243C24.6853 31.8039 19.7192 27.1863 13.5987 27.1863Z" fill="white"/>
<path d="M22.0493 44.502L15.6457 54.4995L13.4894 52.5609L11.3113 54.4995L5.36502 45.1772" stroke="black" stroke-width="0.3" stroke-miterlimit="10" stroke-linejoin="round"/>
<path d="M76.7637 5.49201C75.2391 2.52979 73.5837 0.896212 71.9501 1.00512C66.5049 1.31005 63.1941 20.6952 64.5446 44.2623C65.9168 67.8512 71.4492 86.6918 76.8944 86.3868C78.9854 86.2561 80.7715 83.3157 82.1001 78.415" stroke="black" stroke-width="0.3" stroke-miterlimit="10"/>
<path d="M58.6421 20.1942C49.298 19.7586 42.1974 22.0892 39.8015 27.2513C35.3364 36.9003 49.0367 52.7134 70.3821 62.5802C91.7275 72.447 112.637 72.6212 117.102 62.994C119.498 57.8101 116.645 50.8184 110.154 43.9574" stroke="black" stroke-width="0.3" stroke-miterlimit="10"/>
<path d="M115.491 68.5916C112.965 68.5916 110.917 66.5438 110.917 64.0176C110.917 61.4915 112.965 59.4436 115.491 59.4436C118.017 59.4436 120.065 61.4915 120.065 64.0176C120.065 66.5438 118.017 68.5916 115.491 68.5916Z" fill="#F8BC20" stroke="black" stroke-width="0.3" stroke-miterlimit="10"/>
<path d="M116.319 68.5699C113.792 68.5699 111.745 66.5221 111.745 63.9959C111.745 61.4697 113.792 59.4219 116.319 59.4219C118.845 59.4219 120.893 61.4697 120.893 63.9959C120.893 66.5221 118.845 68.5699 116.319 68.5699Z" fill="#FBE62E" stroke="black" stroke-width="0.3" stroke-miterlimit="10"/>
<path d="M116.319 67.8293C118.432 67.8293 120.152 66.1086 120.152 63.9958C120.152 61.8831 118.432 60.1624 116.319 60.1624C114.206 60.1624 112.485 61.8831 112.485 63.9958C112.485 66.1086 114.206 67.8293 116.319 67.8293Z" fill="#F8BC20" stroke="black" stroke-width="0.3" stroke-miterlimit="10"/>
<path d="M39.7795 30.7144C37.3135 30.7144 35.3144 28.7153 35.3144 26.2493C35.3144 23.7833 37.3135 21.7842 39.7795 21.7842C42.2455 21.7842 44.2446 23.7833 44.2446 26.2493C44.2446 28.7153 42.2455 30.7144 39.7795 30.7144Z" fill="#F8BC20" stroke="black" stroke-width="0.3" stroke-miterlimit="10"/>
<path d="M40.5637 30.6927C38.0977 30.6927 36.0986 28.6936 36.0986 26.2276C36.0986 23.7616 38.0977 21.7625 40.5637 21.7625C43.0297 21.7625 45.0288 23.7616 45.0288 26.2276C45.0288 28.6936 43.0297 30.6927 40.5637 30.6927Z" fill="#FBE62E" stroke="black" stroke-width="0.3" stroke-miterlimit="10"/>
<path d="M40.5635 29.952C42.611 29.952 44.2881 28.2749 44.2881 26.2275C44.2881 24.1801 42.611 22.5029 40.5635 22.5029C38.5161 22.5029 36.839 24.1801 36.839 26.2275C36.839 28.2749 38.5161 29.952 40.5635 29.952Z" fill="#F8BC20" stroke="black" stroke-width="0.3" stroke-miterlimit="10"/>
<path d="M47.4034 55.7628C44.1798 63.7782 44.0491 70.6175 47.7736 74.3203C55.0485 81.5951 74.2812 74.1242 90.7694 57.6578C107.258 41.1913 114.707 21.9368 107.432 14.662C103.991 11.2205 97.8918 11.0899 90.6823 13.6165" stroke="black" stroke-width="0.3" stroke-miterlimit="10"/>
<path d="M137.794 50.0995H136.531C136.356 50.0995 136.204 49.947 136.204 49.7728V49.2501C136.204 49.0758 136.356 48.9233 136.531 48.9233H137.794C137.968 48.9233 138.121 49.0758 138.121 49.2501V49.7728C138.121 49.947 137.968 50.0995 137.794 50.0995Z" stroke="black" stroke-width="0.3" stroke-miterlimit="10"/>
<path d="M136.204 49.1631H138.121C138.229 49.1631 138.36 49.0978 138.404 48.9889C139.515 46.789 143 44.7198 143 41.5833C143 38.4033 140.408 35.9856 137.228 35.9856C134.047 35.9856 131.456 38.3815 131.456 41.5833C131.456 44.9376 134.766 46.8543 135.921 48.9889C135.986 49.0978 136.095 49.1631 136.204 49.1631Z" fill="#4AC7D3" stroke="black" stroke-width="0.3" stroke-miterlimit="10"/>
<path d="M137.968 51.8421H136.356C136.182 51.8421 136.03 51.6897 136.03 51.5154V50.2086C136.03 50.0343 136.182 49.8818 136.356 49.8818H137.968C138.142 49.8818 138.295 50.0343 138.295 50.2086V51.5154C138.295 51.6897 138.142 51.8421 137.968 51.8421Z" fill="#FFC664" stroke="black" stroke-width="0.3" stroke-miterlimit="10"/>
<path d="M138.36 50.5789C138.6 50.6224 138.752 50.6878 138.752 50.7313C138.752 50.862 138.055 50.9709 137.184 50.9709C136.313 50.9709 135.616 50.862 135.616 50.7313C135.616 50.666 135.747 50.6224 135.986 50.5789" stroke="black" stroke-width="0.3" stroke-miterlimit="10"/>
<path d="M136.095 48.9887C135.703 48.2264 135.028 47.5076 134.331 46.7235C134.287 46.6799 134.244 46.6146 134.178 46.571C135.071 47.0938 136.095 47.3769 137.162 47.3769C138.142 47.3769 139.101 47.1374 139.95 46.68C139.231 47.4641 138.578 48.2046 138.208 48.9887H136.095Z" fill="#008D98"/>
<path opacity="0.2" d="M137.228 35.9856C136.662 35.9856 136.095 36.0727 135.573 36.2034C135.181 36.9657 134.963 37.837 134.963 38.73C134.963 41.8011 137.468 44.306 140.539 44.306C141.149 44.306 141.737 44.197 142.281 44.0228C142.717 43.2605 143 42.4546 143 41.5615C143 38.4033 140.408 35.9856 137.228 35.9856Z" fill="white"/>
<path d="M141.628 45.0029L138.295 50.2086L137.163 49.2067L136.03 50.2086L132.937 45.3732" stroke="black" stroke-width="0.3" stroke-miterlimit="10" stroke-linejoin="round"/>
<path d="M65.6989 56.6121C63.2329 56.6121 61.2338 54.613 61.2338 52.147C61.2338 49.681 63.2329 47.6819 65.6989 47.6819C68.165 47.6819 70.1641 49.681 70.1641 52.147C70.1641 54.613 68.165 56.6121 65.6989 56.6121Z" fill="#F8BC20" stroke="black" stroke-width="0.3" stroke-miterlimit="10"/>
<path d="M66.4831 56.5904C64.0171 56.5904 62.018 54.5913 62.018 52.1253C62.018 49.6593 64.0171 47.6602 66.4831 47.6602C68.9491 47.6602 70.9482 49.6593 70.9482 52.1253C70.9482 54.5913 68.9491 56.5904 66.4831 56.5904Z" fill="#FBE62E" stroke="black" stroke-width="0.3" stroke-miterlimit="10"/>
<path d="M66.4835 55.8498C68.5309 55.8498 70.208 54.1726 70.208 52.1252C70.208 50.0778 68.5309 48.4006 66.4835 48.4006C64.436 48.4006 62.7589 50.0778 62.7589 52.1252C62.7807 54.1726 64.436 55.8498 66.4835 55.8498Z" fill="#F8BC20" stroke="black" stroke-width="0.3" stroke-miterlimit="10"/>
<path d="M46.2048 77.2388C43.7388 77.2388 41.7397 75.2397 41.7397 72.7737C41.7397 70.3077 43.7388 68.3086 46.2048 68.3086C48.6708 68.3086 50.6699 70.3077 50.6699 72.7737C50.6699 75.2397 48.6708 77.2388 46.2048 77.2388Z" fill="#F8BC20" stroke="black" stroke-width="0.3" stroke-miterlimit="10"/>
<path d="M46.9895 77.2171C44.5235 77.2171 42.5244 75.218 42.5244 72.752C42.5244 70.286 44.5235 68.2869 46.9895 68.2869C49.4555 68.2869 51.4546 70.286 51.4546 72.752C51.4546 75.218 49.4555 77.2171 46.9895 77.2171Z" fill="#FBE62E" stroke="black" stroke-width="0.3" stroke-miterlimit="10"/>
<path d="M46.9893 76.4765C49.0367 76.4765 50.7139 74.7993 50.7139 72.7519C50.7139 70.7045 49.0367 69.0273 46.9893 69.0273C44.9419 69.0273 43.2648 70.7045 43.2648 72.7519C43.2648 74.7993 44.9419 76.4765 46.9893 76.4765Z" fill="#F8BC20" stroke="black" stroke-width="0.3" stroke-miterlimit="10"/>
<path d="M106.626 19.1705C104.16 19.1705 102.161 17.1714 102.161 14.7053C102.161 12.2393 104.16 10.2402 106.626 10.2402C109.092 10.2402 111.091 12.2393 111.091 14.7053C111.091 17.1714 109.092 19.1705 106.626 19.1705Z" fill="#F8BC20" stroke="black" stroke-width="0.3" stroke-miterlimit="10"/>
<path d="M107.41 19.1487C104.944 19.1487 102.945 17.1496 102.945 14.6836C102.945 12.2176 104.944 10.2185 107.41 10.2185C109.876 10.2185 111.875 12.2176 111.875 14.6836C111.875 17.1496 109.876 19.1487 107.41 19.1487Z" fill="#FBE62E" stroke="black" stroke-width="0.3" stroke-miterlimit="10"/>
<path d="M107.411 18.3864C109.458 18.3864 111.135 16.7092 111.135 14.6618C111.135 12.6144 109.458 10.9373 107.411 10.9373C105.363 10.9373 103.686 12.6144 103.686 14.6618C103.686 16.7092 105.363 18.3864 107.411 18.3864Z" fill="#F8BC20" stroke="black" stroke-width="0.3" stroke-miterlimit="10"/>
<path d="M15.4994 35.3693C15.4421 34.8728 15.1939 34.4909 14.7929 34.2044C14.3728 33.9371 13.8572 33.7843 13.2461 33.7843C12.8069 33.7843 12.4059 33.8607 12.0813 33.9944C11.7567 34.1472 11.4893 34.3381 11.2984 34.5864C11.1074 34.8346 11.0119 35.121 11.0119 35.4457C11.0119 35.713 11.0692 35.9422 11.2029 36.1331C11.3366 36.3241 11.4893 36.4768 11.6994 36.6105C11.9094 36.7442 12.1195 36.8397 12.3295 36.916C12.5587 36.9924 12.7496 37.0688 12.9406 37.107L13.9527 37.3743C14.22 37.4507 14.5064 37.5462 14.8311 37.6608C15.1557 37.7753 15.4612 37.9472 15.7668 38.1573C16.0532 38.3673 16.3014 38.6346 16.4924 38.9593C16.6834 39.2839 16.7788 39.6849 16.7788 40.1432C16.7788 40.6779 16.6452 41.1744 16.3587 41.6136C16.0723 42.0528 15.6713 42.3965 15.1175 42.6638C14.5828 42.9312 13.9145 43.0458 13.1506 43.0458C12.425 43.0458 11.814 42.9312 11.2793 42.702C10.7637 42.4729 10.3436 42.1483 10.038 41.7282C9.73252 41.3081 9.56065 40.8307 9.52246 40.2769H10.7828C10.821 40.6588 10.9356 40.9643 11.1647 41.2126C11.3938 41.4608 11.6803 41.6518 12.024 41.7664C12.3677 41.8809 12.7496 41.9382 13.1316 41.9382C13.5899 41.9382 14.01 41.8618 14.3728 41.7091C14.7356 41.5563 15.0411 41.3462 15.2512 41.0789C15.4612 40.8116 15.5758 40.4869 15.5758 40.1241C15.5758 39.7995 15.4803 39.5131 15.2894 39.303C15.0984 39.0929 14.8502 38.9211 14.5446 38.7874C14.2391 38.6537 13.9145 38.5392 13.5517 38.4437L12.3104 38.1C11.5275 37.8708 10.8974 37.5462 10.4391 37.1261C9.98076 36.706 9.75161 36.1522 9.75161 35.4839C9.75161 34.9301 9.90438 34.4336 10.2099 34.0135C10.5154 33.5934 10.9356 33.2687 11.4511 33.0396C11.9667 32.8105 12.5396 32.6959 13.1888 32.6959C13.8381 32.6959 14.411 32.8105 14.9075 33.0396C15.4039 33.2687 15.805 33.5934 16.1105 33.9753C16.3969 34.3763 16.5688 34.8346 16.5879 35.3311H15.4994V35.3693ZM12.8069 44.1533V31.6074H13.609V44.1533H12.8069Z" fill="#15357A"/>
<path d="M138.619 40.5918L138.322 41.2414H134.109L134.351 40.5918H138.619ZM138.063 41.891L137.766 42.5406H134.109L134.351 41.891H138.063ZM139.38 38.8471L139.065 39.5153C138.935 39.3854 138.786 39.274 138.619 39.1998C138.471 39.107 138.304 39.0327 138.137 38.9956C137.97 38.9399 137.784 38.9214 137.599 38.9214C137.227 38.9214 136.893 39.0142 136.615 39.2183C136.318 39.4225 136.095 39.7194 135.91 40.1092C135.743 40.499 135.65 40.9815 135.65 41.5569C135.65 42.1322 135.743 42.6148 135.91 43.0046C136.077 43.3943 136.318 43.6913 136.615 43.8954C136.912 44.0996 137.246 44.1924 137.599 44.1924C137.784 44.1924 137.97 44.1738 138.137 44.1181C138.304 44.0625 138.471 44.0068 138.619 43.914C138.768 43.8212 138.898 43.7284 139.028 43.617L139.343 44.2852C139.121 44.5079 138.842 44.6564 138.545 44.7677C138.248 44.8791 137.933 44.9348 137.599 44.9348C137.06 44.9348 136.596 44.8049 136.188 44.5265C135.78 44.2481 135.464 43.8583 135.223 43.3572C134.982 42.8561 134.87 42.2436 134.87 41.5383C134.87 40.833 134.982 40.2391 135.223 39.7194C135.446 39.2183 135.78 38.81 136.188 38.5502C136.596 38.2718 137.06 38.1418 137.599 38.1418C137.933 38.1418 138.267 38.1975 138.564 38.3274C138.879 38.4574 139.158 38.6244 139.38 38.8471Z" fill="#15357A"/>
<defs>
<clipPath id="clip0_2718_8702">
<rect width="61.0123" height="41.946" fill="white" transform="matrix(-1 3.28961e-09 3.28961e-09 1 63.9209 77.4475)"/>
</clipPath>
</defs>
</svg>
