<svg width="125" height="125" viewBox="0 0 125 125" fill="none" xmlns="http://www.w3.org/2000/svg">
<g clip-path="url(#clip0_2206_176)">
<path d="M119.54 64.1149C102.2 5.75492 98.4501 13.3249 55.6601 11.3149C15.0501 9.41492 5.92014 20.5249 3.09014 59.6149C-0.639855 111.225 36.0901 124.495 91.5801 105.905C109.28 99.9849 129.47 97.5349 119.54 64.1149Z" fill="#EAF1FE"/>
<path d="M80.0001 76.1948H44.0901C45.3565 73.3345 47.2876 70.8178 49.7226 68.8541C52.1577 66.8904 55.0263 65.5365 58.0901 64.9048C55.3158 64.0628 52.9402 62.2448 51.4025 59.7869C49.8647 57.3291 49.2688 54.3977 49.7248 51.5345C50.1809 48.6713 51.6581 46.0701 53.8834 44.2117C56.1086 42.3533 58.9315 41.3633 61.8301 41.4248H62.5201H62.5801C65.3828 41.5653 68.0476 42.6837 70.1112 44.5854C72.1749 46.4871 73.5067 49.0519 73.8753 51.8338C74.2438 54.6157 73.6257 57.4388 72.1285 59.8123C70.6312 62.1857 68.3495 63.9594 65.6801 64.8248C68.8095 65.4182 71.7479 66.7631 74.2424 68.7437C76.7369 70.7243 78.7128 73.2814 80.0001 76.1948Z" fill="#EAF1FE" stroke="#15357A" stroke-width="1.5" stroke-linecap="round" stroke-linejoin="round"/>
<path opacity="0.1" d="M80.0003 76.1948H75.8303C74.5404 73.2851 72.5633 70.7321 70.069 68.7551C67.5746 66.7781 64.6376 65.4362 61.5103 64.8448C63.9992 64.0305 66.1534 62.4243 67.6442 60.2714C69.1351 58.1184 69.8807 55.5369 69.7674 52.9206C69.6541 50.3043 68.688 47.7969 67.0166 45.7809C65.3452 43.7649 63.0603 42.3509 60.5103 41.7548C61.1861 41.5893 61.8756 41.4856 62.5703 41.4448H62.6303C65.433 41.5853 68.0978 42.7037 70.1614 44.6054C72.225 46.5071 73.5569 49.0719 73.9254 51.8538C74.294 54.6357 73.6759 57.4588 72.1786 59.8323C70.6814 62.2057 68.3997 63.9794 65.7303 64.8448C68.8486 65.4437 71.7755 66.7889 74.2606 68.7655C76.7457 70.7421 78.7151 73.2912 80.0003 76.1948Z" fill="#15357A"/>
<path d="M33.2802 51.0149L34.2702 52.8249L36.0902 53.8249L34.2702 54.8149L33.2802 56.6349L32.2802 54.8149L30.4602 53.8249L32.2802 52.8249L33.2802 51.0149Z" fill="#2C71F0"/>
<path d="M76.2502 25.4949L77.5802 27.9149L80.0002 29.2449L77.5802 30.5649L76.2502 32.9949L74.9202 30.5649L72.5002 29.2449L74.9202 27.9149L76.2502 25.4949Z" fill="#15357A"/>
<path d="M94.1801 67.7249L95.0001 69.2149L96.4801 70.0249L95.0001 70.8349L94.1801 72.3249L93.3701 70.8349L91.8901 70.0249L93.3701 69.2149L94.1801 67.7249Z" fill="#15357A"/>
<path d="M97.8902 92.115H26.2102" stroke="#15357A" stroke-width="1.5" stroke-linecap="round" stroke-linejoin="round"/>
<path d="M45.2201 70.115H78.8301C79.4825 70.115 80.1082 70.3742 80.5696 70.8355C81.0309 71.2968 81.2901 71.9226 81.2901 72.575V92.115H42.7601V72.595C42.7575 72.2703 42.8191 71.9482 42.9416 71.6474C43.064 71.3467 43.2448 71.0731 43.4735 70.8426C43.7022 70.612 43.9743 70.429 44.274 70.3041C44.5738 70.1793 44.8953 70.115 45.2201 70.115Z" fill="white" stroke="#15357A" stroke-width="1.5" stroke-linecap="round" stroke-linejoin="round"/>
<path d="M62.8303 81.5749C62.8315 81.0447 63.0033 80.529 63.3202 80.104C63.6372 79.679 64.0825 79.3673 64.5903 79.2149C64.1318 78.797 63.5618 78.5214 62.9496 78.4216C62.3374 78.3218 61.7094 78.402 61.142 78.6526C60.5745 78.9032 60.0922 79.3133 59.7535 79.833C59.4149 80.3527 59.2346 80.9596 59.2346 81.5799C59.2346 82.2002 59.4149 82.8071 59.7535 83.3268C60.0922 83.8465 60.5745 84.2566 61.142 84.5072C61.7094 84.7577 62.3374 84.838 62.9496 84.7382C63.5618 84.6383 64.1318 84.3627 64.5903 83.9449C64.0817 83.7906 63.6361 83.477 63.3192 83.0503C63.0023 82.6236 62.8309 82.1064 62.8303 81.5749Z" fill="#D5E3FC"/>
</g>
<defs>
<clipPath id="clip0_2206_176">
<rect width="119.34" height="102.77" fill="white" transform="translate(2.83008 11.115)"/>
</clipPath>
</defs>
</svg>
