<svg width="125" height="125" viewBox="0 0 125 125" fill="none" xmlns="http://www.w3.org/2000/svg">
<g clip-path="url(#clip0_2201_718)">
<path d="M119.54 64.1149C102.2 5.75492 98.4501 13.3249 55.6601 11.3149C15.0501 9.41492 5.92014 20.5249 3.09014 59.6149C-0.639855 111.225 36.0901 124.495 91.5801 105.905C109.28 99.9849 129.47 97.5349 119.54 64.1149Z" fill="#EAF1FE"/>
<path d="M20.28 60.0149L21.27 61.8249L23.09 62.8249L21.27 63.8149L20.28 65.6349L19.28 63.8149L17.46 62.8249L19.28 61.8249L20.28 60.0149Z" fill="#2C71F0"/>
<path d="M81.25 27.4949L82.58 29.9149L85 31.2449L82.58 32.5649L81.25 34.9949L79.92 32.5649L77.5 31.2449L79.92 29.9149L81.25 27.4949Z" fill="#15357A"/>
<path d="M99.1801 69.7249L100 71.2149L101.48 72.0249L100 72.8349L99.1801 74.3249L98.3701 72.8349L96.8901 72.0249L98.3701 71.2149L99.1801 69.7249Z" fill="#15357A"/>
</g>
<g clip-path="url(#clip1_2201_718)">
<path d="M49.2121 50.6793C48.8355 48.7841 49.4631 47.1416 50.7184 46.889L63.2716 44.2357C64.5269 43.983 65.7823 45.2465 66.1589 47.1416" stroke="#2C71F0" stroke-width="2" stroke-miterlimit="10" stroke-linecap="round" stroke-linejoin="round"/>
<path d="M85.9932 58.5127L89.1315 73.4213C89.8847 76.9589 87.6251 80.3702 84.1102 81.1283L46.0741 89.2143C42.5592 89.9724 39.1698 87.6982 38.4166 84.1606L35.2783 69.3783" fill="#EAF1FE"/>
<path d="M85.9932 58.5127L89.1315 73.4213C89.8847 76.9589 87.6251 80.3702 84.1102 81.1283L46.0741 89.2143C42.5592 89.9724 39.1698 87.6982 38.4166 84.1606L35.2783 69.3783" stroke="#15357A" stroke-width="2" stroke-miterlimit="10" stroke-linecap="round" stroke-linejoin="round"/>
<path opacity="0.1" d="M34.9019 71.6524L63.5231 76.2008L86.8721 61.7976L78.9636 52.3218L47.0785 56.9965L35.7806 61.5449L34.9019 71.6524Z" fill="#15357A"/>
<path d="M79.2144 44.9939L36.0314 54.217C33.2697 54.8488 31.5123 57.502 32.1399 60.2816L34.1484 70.0101L62.3931 71.5262L87.2484 58.7654L85.2399 49.0369C84.6123 46.131 81.9761 44.3622 79.2144 44.9939Z" fill="white" stroke="#15357A" stroke-width="2" stroke-miterlimit="10" stroke-linecap="round" stroke-linejoin="round"/>
<path opacity="0.1" d="M66.0238 66.122L59.5137 67.5042L61.1719 75.4163L67.682 74.0342L66.0238 66.122Z" fill="white" stroke="#15357A" stroke-width="2" stroke-miterlimit="10" stroke-linecap="round" stroke-linejoin="round"/>
<path d="M64.5077 66.3891L57.9976 67.7712L59.6558 75.6834L66.1659 74.3013L64.5077 66.3891Z" fill="white" stroke="#15357A" stroke-width="2" stroke-miterlimit="10" stroke-linecap="round" stroke-linejoin="round"/>
</g>
<defs>
<clipPath id="clip0_2201_718">
<rect width="119.34" height="102.77" fill="white" transform="translate(2.83008 11.115)"/>
</clipPath>
<clipPath id="clip1_2201_718">
<rect width="59" height="47" fill="white" transform="translate(31.0103 43.2249)"/>
</clipPath>
</defs>
</svg>
