<svg width="125" height="125" viewBox="0 0 125 125" fill="none" xmlns="http://www.w3.org/2000/svg">
<g clip-path="url(#clip0_2206_180)">
<path d="M106.272 41.4179C97.5254 13.3219 57.5074 -2.0806 29.4097 25.551C7.03989 47.5324 10.9101 63.4767 21.3597 90.1795C33.8992 122.378 82.2768 108.523 87.2307 105.272C110.839 89.8699 118.425 80.6593 106.272 41.4179Z" fill="#EAF1FE"/>
<path opacity="0.1" d="M62.5387 99.3126C76.4322 99.3126 87.6951 98.4463 87.6951 97.3776C87.6951 96.3089 76.4322 95.4426 62.5387 95.4426C48.6452 95.4426 37.3823 96.3089 37.3823 97.3776C37.3823 98.4463 48.6452 99.3126 62.5387 99.3126Z" fill="#15357A"/>
<path d="M78.7935 29.4209L78.0969 27.6407L76.6262 26.5571L78.3291 25.8605L79.4128 24.3899L80.1094 26.0927L81.6575 27.1763L79.8772 27.8729L78.7935 29.4209Z" fill="#15357A"/>
<path d="M33.0478 56.8204L31.7319 56.0464L30.2612 56.1238L30.9579 54.8854L30.8805 53.4148L32.1963 54.1114L33.667 54.034L32.9704 55.3498L33.0478 56.8204Z" fill="#2C71F0"/>
<path d="M98.9187 68.5852L98.0673 68.0434L97.061 68.1208L97.5255 67.2694V66.2632L98.3769 66.7276H99.3832L98.8413 67.579L98.9187 68.5852Z" fill="#2C71F0"/>
<path d="M85.9921 80.5818H39.4722C42.7231 73.1515 49.4573 67.5787 57.6622 65.9534C51.3924 63.941 46.903 58.0586 46.903 51.0927C46.903 42.5013 53.8694 35.5354 62.4612 35.5354C62.7708 35.5354 63.0805 35.5354 63.3901 35.5354H63.4675C65.7122 35.6902 67.8795 36.3094 69.7372 37.3156C74.6911 39.9472 78.0969 45.1329 78.0969 51.0927C78.0969 57.9812 73.6074 63.7862 67.4925 65.876C69.5824 66.263 71.5949 66.8821 73.4526 67.8109C74.0719 68.1205 74.7685 68.4301 75.3877 68.8171C76.2392 69.2815 77.0906 69.8233 77.8647 70.4425C79.5676 71.6809 81.193 73.2289 82.5089 74.9317C82.5863 75.0091 82.6637 75.0865 82.7411 75.2413C83.9796 76.7893 85.0633 78.4921 85.9147 80.3496C85.9147 80.3496 85.9147 80.427 85.9921 80.5818Z" fill="white" stroke="#15357A" stroke-width="1.5" stroke-miterlimit="10" stroke-linecap="round" stroke-linejoin="round"/>
<path opacity="0.1" d="M85.9921 80.5818H80.5738C80.2642 79.8852 79.9546 79.266 79.5675 78.6469C78.4065 76.4797 76.9358 74.5447 75.1555 72.7645C74.5363 72.1453 73.8396 71.5261 73.143 70.9843C72.6012 70.5973 72.0593 70.1329 71.5175 69.8233C68.7309 67.8883 65.48 66.5725 62.0742 65.9534C68.2665 63.8636 72.6786 58.0586 72.6786 51.1701C72.6786 45.1329 69.2728 39.9472 64.3189 37.393C63.1578 36.7738 61.9968 36.3094 60.6809 35.9998C61.5324 35.7676 62.4612 35.6128 63.3901 35.6128H63.4675C65.7122 35.7676 67.8795 36.3868 69.7372 37.393C74.6911 40.0246 78.0969 45.2103 78.0969 51.1701C78.0969 58.0586 73.6074 63.8636 67.4925 65.9534C69.5824 66.3403 71.5949 66.9595 73.4526 67.8883C74.0718 68.1979 74.7685 68.5075 75.3877 68.8945C76.2392 69.3589 77.0906 69.9007 77.8647 70.5199C79.5675 71.7583 81.193 73.3063 82.5089 75.0091C82.5863 75.0865 82.6637 75.1639 82.7411 75.3187C83.9796 76.8667 85.0632 78.5695 85.9147 80.427C85.9147 80.3496 85.9147 80.427 85.9921 80.5818Z" fill="#15357A"/>
<path opacity="0.1" d="M88.9335 67.9659L87.0758 70.0556L82.6637 75.0866L82.4315 75.3188L79.5676 78.5696L77.8647 80.5046L75.0781 83.7553L73.2204 85.8451C71.982 84.3745 71.1305 82.5169 70.8209 80.582H68.731C68.5762 79.8854 68.5762 79.1114 68.5762 78.3374C68.5762 75.0866 69.6598 72.1454 71.5175 69.8234C72.0594 69.1269 72.756 68.4303 73.4526 67.8111C74.0719 68.1207 74.7685 68.4303 75.3877 68.8173C77.4002 67.2693 79.9546 66.3405 82.7411 66.3405C84.9859 66.2631 87.0758 66.8823 88.9335 67.9659Z" fill="#15357A"/>
<path d="M94.7387 78.3375C94.7387 84.9938 89.3204 90.4118 82.6637 90.4118C78.8709 90.4118 75.4651 88.6316 73.2204 85.9226C71.9819 84.452 71.1304 82.5944 70.8208 80.6595C70.666 79.9629 70.5886 79.1889 70.5886 78.4149C70.5886 75.6285 71.5175 73.0743 73.0656 71.0619C73.6848 70.2105 74.4588 69.5139 75.2329 68.8948C77.2454 67.3468 79.7997 66.418 82.5863 66.418C84.831 66.418 86.9983 67.0372 88.7786 68.1208C92.4166 70.0557 94.7387 73.9257 94.7387 78.3375Z" fill="#D5E3FC" stroke="#15357A" stroke-width="1.5" stroke-miterlimit="10" stroke-linecap="round" stroke-linejoin="round"/>
<path d="M82.6638 87.6254C77.5551 87.6254 73.3752 83.4459 73.3752 78.3375C73.3752 73.2291 77.5551 68.9722 82.7412 68.9722C87.8498 68.9722 92.1071 73.1517 92.1071 78.3375C92.1071 83.5233 87.8498 87.6254 82.6638 87.6254Z" fill="white" stroke="#15357A" stroke-width="1.5" stroke-miterlimit="10" stroke-linecap="round" stroke-linejoin="round"/>
<path d="M82.4314 72.9194V80.195H87.5401" stroke="#15357A" stroke-width="1.5" stroke-miterlimit="10" stroke-linecap="round" stroke-linejoin="round"/>
</g>
<defs>
<clipPath id="clip0_2206_180">
<rect width="99" height="100" fill="white" transform="translate(13 11)"/>
</clipPath>
</defs>
</svg>
