<svg width="200" height="13" viewBox="0 0 200 13" fill="none" xmlns="http://www.w3.org/2000/svg">
<path d="M5.32579 12.8585C3.36002 12.8585 1.59416 12.1892 0.0615234 10.8824L0.961114 9.86242C1.66079 10.468 2.32716 10.9142 3.02684 11.1692C3.72652 11.4561 4.52615 11.5836 5.39243 11.5836C6.2587 11.5836 6.95838 11.3923 7.45815 11.0099C7.99124 10.5955 8.25779 10.0855 8.25779 9.44808C8.25779 8.84249 8.02456 8.36439 7.5581 8.01378C7.09165 7.66318 6.22538 7.34445 4.92597 7.08946C3.39334 6.77073 2.29384 6.35638 1.62748 5.81454C0.961114 5.2727 0.627932 4.50774 0.627932 3.51967C0.627932 2.5316 1.02775 1.73477 1.82739 1.09731C2.62702 0.459845 3.62656 0.141113 4.85934 0.141113C6.55856 0.141113 8.05788 0.651087 9.3906 1.63915L8.55765 2.72284C7.42483 1.83039 6.19206 1.38417 4.85934 1.38417C4.02638 1.38417 3.36002 1.57541 2.86025 1.95789C2.36048 2.34036 2.09393 2.81846 2.09393 3.39218C2.09393 3.99777 2.32716 4.47586 2.82693 4.82647C3.3267 5.17707 4.22629 5.49581 5.59234 5.78266C7.05833 6.10139 8.12451 6.51575 8.75756 7.05759C9.42392 7.59943 9.7571 8.33251 9.7571 9.28871C9.7571 10.3405 9.35729 11.1692 8.52433 11.8067C7.65806 12.5398 6.59188 12.8585 5.32579 12.8585Z" fill="black"/>
<path d="M25.1836 12.8577C23.551 12.8577 22.2516 12.3796 21.2853 11.4553C20.3191 10.531 19.8193 9.19228 19.8193 7.503V0.331543H21.2853V7.40739C21.2853 8.74606 21.6185 9.766 22.3182 10.4991C23.0179 11.2003 23.9841 11.5828 25.2169 11.5828C26.4163 11.5828 27.3826 11.2322 28.0822 10.531C28.7819 9.82974 29.1151 8.84168 29.1151 7.503V0.331543H30.5811V7.37551C30.5811 9.12854 30.0813 10.4672 29.1151 11.4234C28.1156 12.4115 26.8161 12.8577 25.1836 12.8577Z" fill="black"/>
<path d="M41.3115 12.6663V0.363281H46.1426C47.6086 0.363281 48.7748 0.713882 49.641 1.41509C50.5073 2.1163 50.9405 3.07249 50.9405 4.28367C50.9405 5.5586 50.4407 6.54667 49.4745 7.24788C48.5082 7.94909 47.3088 8.29969 45.8761 8.29969H42.7442V12.6344H41.3115V12.6663ZM42.7775 7.05664H45.9427C47.0089 7.05664 47.8752 6.80166 48.5082 6.32356C49.1413 5.81359 49.4745 5.14425 49.4745 4.31555C49.4745 3.45497 49.1746 2.81752 48.5416 2.33942C47.9418 1.86132 47.0756 1.63821 46.0094 1.63821H42.7442L42.7775 7.05664Z" fill="black"/>
<path d="M60.9697 12.6663V0.363281H70.2655V1.63821H62.4024V5.84547H69.4325V7.12039H62.4024V11.4233H70.3321V12.6982H60.9697V12.6663Z" fill="black"/>
<path d="M80.6235 12.6663V0.363281H86.1544C87.7203 0.363281 88.9531 0.77763 89.8194 1.60633C90.4857 2.24379 90.8189 3.0725 90.8189 4.06057C90.8189 5.04863 90.4857 5.84546 89.8527 6.45105C89.2196 7.05664 88.3534 7.47099 87.3205 7.66223L91.2853 12.6982H89.4862L85.7545 7.91722H82.0895V12.6982H80.6235V12.6663ZM82.0895 6.64229H86.0544C87.0206 6.64229 87.8203 6.41918 88.4533 5.94108C89.053 5.49486 89.3862 4.8574 89.3862 4.06057C89.3862 3.29561 89.0863 2.72189 88.5199 2.27567C87.9535 1.82945 87.1539 1.63821 86.121 1.63821H82.1562V6.64229H82.0895Z" fill="black"/>
<path d="M101.282 12.6663V0.363281H102.748V5.84546H110.178V0.363281H111.644V12.6663H110.178V7.12039H102.748V12.6663H101.282Z" fill="black"/>
<path d="M127.738 12.8577C126.106 12.8577 124.806 12.3796 123.84 11.4553C122.874 10.531 122.374 9.19228 122.374 7.503V0.331543H123.84V7.40739C123.84 8.74606 124.173 9.766 124.873 10.4991C125.573 11.2003 126.539 11.5828 127.772 11.5828C128.971 11.5828 129.937 11.2322 130.637 10.531C131.337 9.82974 131.67 8.84168 131.67 7.503V0.331543H133.136V7.37551C133.136 9.12854 132.636 10.4672 131.67 11.4234C130.704 12.4115 129.371 12.8577 127.738 12.8577Z" fill="black"/>
<path d="M143.895 12.6663V0.363281H145.361L150.058 7.08851L154.756 0.363281H156.222V12.6663H154.756V2.69002L150.058 9.28776H149.992L145.294 2.72189V12.6663H143.895Z" fill="black"/>
<path d="M166.117 12.6683L171.981 0.269531H173.347L179.211 12.6683H177.645L176.146 9.41722H169.149L167.617 12.6683H166.117ZM169.682 8.17415H175.546L172.614 1.89507L169.682 8.17415Z" fill="black"/>
<path d="M189.076 12.6663V0.363281H190.442L198.539 10.244V0.363281H199.938V12.6663H198.772L190.476 2.56253V12.6663H189.076Z" fill="black"/>
</svg>
